<svg xmlns="http://www.w3.org/2000/svg" width="512" height="512" viewBox="0 0 512 512" version="1.1"><path d="M 71 183 L 71 191 75.427 191 C 79.019 191, 80.246 190.503, 81.927 188.365 C 84.244 185.421, 84.574 181.958, 82.850 178.684 C 81.222 175.591, 80.066 175.033, 75.250 175.015 L 71 175 71 183 M 87 183 L 87 191 93 191 C 96.333 191, 99 190.556, 99 190 C 99 189.450, 96.750 189, 94 189 C 89.333 189, 89 188.833, 89 186.500 C 89 184.204, 89.367 184, 93.500 184 C 95.975 184, 98 183.550, 98 183 C 98 182.450, 95.975 182, 93.500 182 C 89.367 182, 89 181.796, 89 179.500 C 89 177.204, 89.367 177, 93.500 177 C 95.975 177, 98 176.550, 98 176 C 98 175.450, 95.525 175, 92.500 175 L 87 175 87 183 M 102 183 L 102 191 106.429 191 C 109.121 191, 111.473 190.384, 112.429 189.429 C 114.202 187.655, 114.478 185.413, 113.033 184.520 C 112.501 184.191, 112.332 182.591, 112.657 180.964 C 113.495 176.777, 111.623 175, 106.378 175 L 102 175 102 183 M 117 183 C 117 187.667, 117.417 191, 118 191 C 118.583 191, 119 187.667, 119 183 C 119 178.333, 118.583 175, 118 175 C 117.417 175, 117 178.333, 117 183 M 122 176 C 122 176.550, 123.125 177, 124.500 177 C 126.929 177, 127 177.200, 127 184 C 127 188, 127.429 191, 128 191 C 128.571 191, 129 188, 129 184 C 129 177.200, 129.071 177, 131.500 177 C 132.875 177, 134 176.550, 134 176 C 134 175.444, 131.333 175, 128 175 C 124.667 175, 122 175.444, 122 176 M 73 183 C 73 188.967, 73.016 189, 75.929 189 C 79.639 189, 82 186.667, 82 183 C 82 179.333, 79.639 177, 75.929 177 C 73.016 177, 73 177.033, 73 183 M 104 179.500 C 104 181.861, 104.329 182.095, 107.250 181.813 C 109.729 181.574, 110.500 181.025, 110.500 179.500 C 110.500 177.975, 109.729 177.426, 107.250 177.187 C 104.329 176.905, 104 177.139, 104 179.500 M 104 186.500 C 104 188.917, 104.292 189.097, 107.750 188.810 C 110.730 188.564, 111.500 188.089, 111.500 186.500 C 111.500 184.911, 110.730 184.436, 107.750 184.190 C 104.292 183.903, 104 184.083, 104 186.500" stroke="none" fill="#03e0ff" fill-rule="evenodd"/><path d="M 70.538 204.499 C 63.387 207.046, 63.047 208.132, 63.022 228.527 C 62.989 255.654, 61.257 254.500, 102 254.500 C 118.225 254.500, 132.703 254.163, 134.173 253.750 C 135.643 253.338, 138.231 251.835, 139.923 250.411 L 143 247.822 143 228.866 C 143 210.251, 142.957 209.866, 140.628 207.537 C 136.621 203.530, 132.193 203.009, 102.500 203.049 C 81.013 203.079, 73.578 203.416, 70.538 204.499 M 72.028 209.113 C 70.669 209.656, 69.213 210.640, 68.794 211.300 C 68.374 211.960, 68.024 220.027, 68.015 229.227 L 68 245.954 70.706 247.727 C 73.143 249.323, 76.359 249.500, 103 249.500 C 129.641 249.500, 132.857 249.323, 135.294 247.727 L 138 245.954 138 228.426 L 138 210.898 134.532 209.449 C 131.768 208.294, 125.327 208.013, 102.782 208.063 C 86.688 208.099, 73.435 208.552, 72.028 209.113 M 92 212 L 92 215 84.500 215 L 77 215 77 230 L 77 245 84.500 245 C 91.333 245, 92 245.178, 92 247 C 92 248.873, 92.667 249, 102.500 249 C 112.333 249, 113 248.873, 113 247 C 113 245.167, 113.667 245, 121 245 L 129 245 129 230 L 129 215 121 215 L 113 215 113 212 L 113 209 102.500 209 L 92 209 92 212 M 93 212.500 C 93 214.991, 93.033 215, 102.500 215 C 111.967 215, 112 214.991, 112 212.500 C 112 210.009, 111.967 210, 102.500 210 C 93.033 210, 93 210.009, 93 212.500 M 78 219.500 L 78 223 85 223 L 92 223 92 219.500 L 92 216 85 216 L 78 216 78 219.500 M 93 230 L 93 244 102.500 244 L 112 244 112 230 L 112 216 102.500 216 L 93 216 93 230 M 113 219.500 L 113 223 120.500 223 L 128 223 128 219.500 L 128 216 120.500 216 L 113 216 113 219.500 M 78 229.500 L 78 235 85 235 L 92 235 92 229.500 L 92 224 85 224 L 78 224 78 229.500 M 113 229.500 L 113 235 120.500 235 L 128 235 128 229.500 L 128 224 120.500 224 L 113 224 113 229.500 M 78 240 L 78 244 85 244 L 92 244 92 240 L 92 236 85 236 L 78 236 78 240 M 113 240 L 113 244 120.500 244 L 128 244 128 240 L 128 236 120.500 236 L 113 236 113 240 M 93 246.500 C 93 247.728, 94.722 248, 102.500 248 C 110.278 248, 112 247.728, 112 246.500 C 112 245.272, 110.278 245, 102.500 245 C 94.722 245, 93 245.272, 93 246.500 M 68.453 361.077 C 67.500 362.618, 67.322 368.919, 68.248 368.347 C 68.673 368.084, 68.929 366.648, 68.815 365.156 C 68.701 363.664, 68.948 361.893, 69.363 361.221 C 69.778 360.550, 69.893 360, 69.618 360 C 69.343 360, 68.819 360.484, 68.453 361.077" stroke="none" fill="#7f7f7f" fill-rule="evenodd"/><path d="M 72.028 209.113 C 70.669 209.656, 69.213 210.640, 68.794 211.300 C 68.374 211.960, 68.024 220.027, 68.015 229.227 L 68 245.954 70.706 247.727 C 73.143 249.323, 76.359 249.500, 103 249.500 C 129.641 249.500, 132.857 249.323, 135.294 247.727 L 138 245.954 138 228.426 L 138 210.898 134.532 209.449 C 131.768 208.294, 125.327 208.013, 102.782 208.063 C 86.688 208.099, 73.435 208.552, 72.028 209.113 M 92 212 L 92 215 84.500 215 L 77 215 77 230 L 77 245 84.500 245 C 91.333 245, 92 245.178, 92 247 C 92 248.873, 92.667 249, 102.500 249 C 112.333 249, 113 248.873, 113 247 C 113 245.167, 113.667 245, 121 245 L 129 245 129 230 L 129 215 121 215 L 113 215 113 212 L 113 209 102.500 209 L 92 209 92 212 M 93 212.500 C 93 214.991, 93.033 215, 102.500 215 C 111.967 215, 112 214.991, 112 212.500 C 112 210.009, 111.967 210, 102.500 210 C 93.033 210, 93 210.009, 93 212.500 M 78 219.500 L 78 223 85 223 L 92 223 92 219.500 L 92 216 85 216 L 78 216 78 219.500 M 93 230 L 93 244 102.500 244 L 112 244 112 230 L 112 216 102.500 216 L 93 216 93 230 M 113 219.500 L 113 223 120.500 223 L 128 223 128 219.500 L 128 216 120.500 216 L 113 216 113 219.500 M 78 229.500 L 78 235 85 235 L 92 235 92 229.500 L 92 224 85 224 L 78 224 78 229.500 M 113 229.500 L 113 235 120.500 235 L 128 235 128 229.500 L 128 224 120.500 224 L 113 224 113 229.500 M 78 240 L 78 244 85 244 L 92 244 92 240 L 92 236 85 236 L 78 236 78 240 M 113 240 L 113 244 120.500 244 L 128 244 128 240 L 128 236 120.500 236 L 113 236 113 240 M 93 246.500 C 93 247.728, 94.722 248, 102.500 248 C 110.278 248, 112 247.728, 112 246.500 C 112 245.272, 110.278 245, 102.500 245 C 94.722 245, 93 245.272, 93 246.500 M 63.611 270.250 C 64.012 270.938, 65.651 273.435, 67.253 275.800 L 70.165 280.100 66.082 285.507 C 61.616 291.423, 61.369 292, 63.307 292 C 64.027 292, 66.108 289.882, 67.932 287.294 L 71.249 282.588 73.375 285.077 C 74.544 286.446, 76.200 288.630, 77.055 289.931 C 77.910 291.232, 79.144 292.118, 79.798 291.898 C 80.548 291.647, 79.543 289.327, 77.070 285.604 L 73.153 279.707 77.108 274.354 C 79.748 270.780, 80.575 269, 79.596 269 C 78.790 269, 76.863 270.790, 75.315 272.979 C 73.767 275.167, 72.169 276.967, 71.764 276.979 C 71.359 276.990, 69.837 275.200, 68.381 273 C 66.925 270.800, 65.092 269, 64.308 269 C 63.445 269, 63.170 269.493, 63.611 270.250 M 84.611 270.250 C 85.012 270.938, 86.651 273.435, 88.253 275.800 L 91.165 280.100 87.082 285.507 C 82.616 291.423, 82.369 292, 84.307 292 C 85.027 292, 87.108 289.882, 88.932 287.294 L 92.249 282.588 94.375 285.077 C 95.544 286.446, 97.200 288.630, 98.055 289.931 C 98.910 291.232, 100.144 292.118, 100.798 291.898 C 101.548 291.647, 100.543 289.327, 98.070 285.604 L 94.153 279.707 98.108 274.354 C 100.748 270.780, 101.575 269, 100.596 269 C 99.790 269, 97.863 270.790, 96.315 272.979 C 94.767 275.167, 93.169 276.967, 92.764 276.979 C 92.359 276.990, 90.837 275.200, 89.381 273 C 87.925 270.800, 86.092 269, 85.308 269 C 84.445 269, 84.170 269.493, 84.611 270.250 M 105.611 270.250 C 106.012 270.938, 107.651 273.435, 109.253 275.800 L 112.165 280.100 108.082 285.507 C 103.616 291.423, 103.369 292, 105.307 292 C 106.027 292, 108.108 289.882, 109.932 287.294 L 113.249 282.588 115.375 285.077 C 116.544 286.446, 118.200 288.630, 119.055 289.931 C 119.910 291.232, 121.144 292.118, 121.798 291.898 C 122.548 291.647, 121.543 289.327, 119.070 285.604 L 115.153 279.707 119.108 274.354 C 121.748 270.780, 122.575 269, 121.596 269 C 120.790 269, 118.863 270.790, 117.315 272.979 C 115.767 275.167, 114.169 276.967, 113.764 276.979 C 113.359 276.990, 111.837 275.200, 110.381 273 C 108.925 270.800, 107.092 269, 106.308 269 C 105.445 269, 105.170 269.493, 105.611 270.250 M 126.611 270.250 C 127.012 270.938, 128.651 273.435, 130.253 275.800 L 133.165 280.100 129.082 285.507 C 124.616 291.423, 124.369 292, 126.307 292 C 127.027 292, 129.108 289.882, 130.932 287.294 L 134.249 282.588 136.375 285.077 C 137.544 286.446, 139.200 288.630, 140.055 289.931 C 140.910 291.232, 142.144 292.118, 142.798 291.898 C 143.548 291.647, 142.543 289.327, 140.070 285.604 L 136.153 279.707 140.108 274.354 C 142.748 270.780, 143.575 269, 142.596 269 C 141.790 269, 139.863 270.790, 138.315 272.979 C 136.767 275.167, 135.169 276.967, 134.764 276.979 C 134.359 276.990, 132.837 275.200, 131.381 273 C 129.925 270.800, 128.092 269, 127.308 269 C 126.445 269, 126.170 269.493, 126.611 270.250 M 156.611 270.250 C 157.012 270.938, 158.651 273.435, 160.253 275.800 L 163.165 280.100 159.082 285.507 C 154.616 291.423, 154.369 292, 156.307 292 C 157.027 292, 159.108 289.882, 160.932 287.294 L 164.249 282.588 166.375 285.077 C 167.544 286.446, 169.200 288.630, 170.055 289.931 C 170.910 291.232, 172.144 292.118, 172.798 291.898 C 173.548 291.647, 172.543 289.327, 170.070 285.604 L 166.153 279.707 170.108 274.354 C 172.748 270.780, 173.575 269, 172.596 269 C 171.790 269, 169.863 270.790, 168.315 272.979 C 166.767 275.167, 165.169 276.967, 164.764 276.979 C 164.359 276.990, 162.837 275.200, 161.381 273 C 159.925 270.800, 158.092 269, 157.308 269 C 156.445 269, 156.170 269.493, 156.611 270.250 M 177.611 270.250 C 178.012 270.938, 179.651 273.435, 181.253 275.800 L 184.165 280.100 180.082 285.507 C 175.616 291.423, 175.369 292, 177.307 292 C 178.027 292, 180.108 289.882, 181.932 287.294 L 185.249 282.588 187.375 285.077 C 188.544 286.446, 190.200 288.630, 191.055 289.931 C 191.910 291.232, 193.144 292.118, 193.798 291.898 C 194.548 291.647, 193.543 289.327, 191.070 285.604 L 187.153 279.707 191.108 274.354 C 193.748 270.780, 194.575 269, 193.596 269 C 192.790 269, 190.863 270.790, 189.315 272.979 C 187.767 275.167, 186.169 276.967, 185.764 276.979 C 185.359 276.990, 183.837 275.200, 182.381 273 C 180.925 270.800, 179.092 269, 178.308 269 C 177.445 269, 177.170 269.493, 177.611 270.250 M 198.611 270.250 C 199.012 270.938, 200.651 273.435, 202.253 275.800 L 205.165 280.100 201.082 285.507 C 196.616 291.423, 196.369 292, 198.307 292 C 199.027 292, 201.108 289.882, 202.932 287.294 L 206.249 282.588 208.375 285.077 C 209.544 286.446, 211.200 288.630, 212.055 289.931 C 212.910 291.232, 214.144 292.118, 214.798 291.898 C 215.548 291.647, 214.543 289.327, 212.070 285.604 L 208.153 279.707 212.108 274.354 C 214.748 270.780, 215.575 269, 214.596 269 C 213.790 269, 211.863 270.790, 210.315 272.979 C 208.767 275.167, 207.169 276.967, 206.764 276.979 C 206.359 276.990, 204.837 275.200, 203.381 273 C 201.925 270.800, 200.092 269, 199.308 269 C 198.445 269, 198.170 269.493, 198.611 270.250 M 219.611 270.250 C 220.012 270.938, 221.651 273.435, 223.253 275.800 L 226.165 280.100 222.082 285.507 C 217.616 291.423, 217.369 292, 219.307 292 C 220.027 292, 222.108 289.882, 223.932 287.294 L 227.249 282.588 229.375 285.077 C 230.544 286.446, 232.200 288.630, 233.055 289.931 C 233.910 291.232, 235.144 292.118, 235.798 291.898 C 236.548 291.647, 235.543 289.327, 233.070 285.604 L 229.153 279.707 233.108 274.354 C 235.748 270.780, 236.575 269, 235.596 269 C 234.790 269, 232.863 270.790, 231.315 272.979 C 229.767 275.167, 228.169 276.967, 227.764 276.979 C 227.359 276.990, 225.837 275.200, 224.381 273 C 222.925 270.800, 221.092 269, 220.308 269 C 219.445 269, 219.170 269.493, 219.611 270.250 M 249.611 270.250 C 250.012 270.938, 251.651 273.435, 253.253 275.800 L 256.165 280.100 252.082 285.507 C 247.616 291.423, 247.369 292, 249.307 292 C 250.027 292, 252.108 289.882, 253.932 287.294 L 257.249 282.588 259.375 285.077 C 260.544 286.446, 262.200 288.630, 263.055 289.931 C 263.910 291.232, 265.144 292.118, 265.798 291.898 C 266.548 291.647, 265.543 289.327, 263.070 285.604 L 259.153 279.707 263.108 274.354 C 265.748 270.780, 266.575 269, 265.596 269 C 264.790 269, 262.863 270.790, 261.315 272.979 C 259.767 275.167, 258.169 276.967, 257.764 276.979 C 257.359 276.990, 255.837 275.200, 254.381 273 C 252.925 270.800, 251.092 269, 250.308 269 C 249.445 269, 249.170 269.493, 249.611 270.250 M 270.611 270.250 C 271.012 270.938, 272.651 273.435, 274.253 275.800 L 277.165 280.100 273.082 285.507 C 268.616 291.423, 268.369 292, 270.307 292 C 271.027 292, 273.108 289.882, 274.932 287.294 L 278.249 282.588 280.375 285.077 C 281.544 286.446, 283.200 288.630, 284.055 289.931 C 284.910 291.232, 286.144 292.118, 286.798 291.898 C 287.548 291.647, 286.543 289.327, 284.070 285.604 L 280.153 279.707 284.108 274.354 C 286.748 270.780, 287.575 269, 286.596 269 C 285.790 269, 283.863 270.790, 282.315 272.979 C 280.767 275.167, 279.169 276.967, 278.764 276.979 C 278.359 276.990, 276.837 275.200, 275.381 273 C 273.925 270.800, 272.092 269, 271.308 269 C 270.445 269, 270.170 269.493, 270.611 270.250 M 291.611 270.250 C 292.012 270.938, 293.651 273.435, 295.253 275.800 L 298.165 280.100 294.082 285.507 C 289.616 291.423, 289.369 292, 291.307 292 C 292.027 292, 294.108 289.882, 295.932 287.294 L 299.249 282.588 301.375 285.077 C 302.544 286.446, 304.200 288.630, 305.055 289.931 C 305.910 291.232, 307.144 292.118, 307.798 291.898 C 308.548 291.647, 307.543 289.327, 305.070 285.604 L 301.153 279.707 305.108 274.354 C 307.748 270.780, 308.575 269, 307.596 269 C 306.790 269, 304.863 270.790, 303.315 272.979 C 301.767 275.167, 300.169 276.967, 299.764 276.979 C 299.359 276.990, 297.837 275.200, 296.381 273 C 294.925 270.800, 293.092 269, 292.308 269 C 291.445 269, 291.170 269.493, 291.611 270.250 M 312.611 270.250 C 313.012 270.938, 314.651 273.435, 316.253 275.800 L 319.165 280.100 315.082 285.507 C 310.616 291.423, 310.369 292, 312.307 292 C 313.027 292, 315.108 289.882, 316.932 287.294 L 320.249 282.588 322.375 285.077 C 323.544 286.446, 325.200 288.630, 326.055 289.931 C 326.910 291.232, 328.144 292.118, 328.798 291.898 C 329.548 291.647, 328.543 289.327, 326.070 285.604 L 322.153 279.707 326.108 274.354 C 328.748 270.780, 329.575 269, 328.596 269 C 327.790 269, 325.863 270.790, 324.315 272.979 C 322.767 275.167, 321.169 276.967, 320.764 276.979 C 320.359 276.990, 318.837 275.200, 317.381 273 C 315.925 270.800, 314.092 269, 313.308 269 C 312.445 269, 312.170 269.493, 312.611 270.250 M 342.611 270.250 C 343.012 270.938, 344.651 273.435, 346.253 275.800 L 349.165 280.100 345.082 285.507 C 340.616 291.423, 340.369 292, 342.307 292 C 343.027 292, 345.108 289.882, 346.932 287.294 L 350.249 282.588 352.375 285.077 C 353.544 286.446, 355.200 288.630, 356.055 289.931 C 356.910 291.232, 358.144 292.118, 358.798 291.898 C 359.548 291.647, 358.543 289.327, 356.070 285.604 L 352.153 279.707 356.108 274.354 C 358.748 270.780, 359.575 269, 358.596 269 C 357.790 269, 355.863 270.790, 354.315 272.979 C 352.767 275.167, 351.169 276.967, 350.764 276.979 C 350.359 276.990, 348.837 275.200, 347.381 273 C 345.925 270.800, 344.092 269, 343.308 269 C 342.445 269, 342.170 269.493, 342.611 270.250 M 363.611 270.250 C 364.012 270.938, 365.651 273.435, 367.253 275.800 L 370.165 280.100 366.082 285.507 C 361.616 291.423, 361.369 292, 363.307 292 C 364.027 292, 366.108 289.882, 367.932 287.294 L 371.249 282.588 373.375 285.077 C 374.544 286.446, 376.200 288.630, 377.055 289.931 C 377.910 291.232, 379.144 292.118, 379.798 291.898 C 380.548 291.647, 379.543 289.327, 377.070 285.604 L 373.153 279.707 377.108 274.354 C 379.748 270.780, 380.575 269, 379.596 269 C 378.790 269, 376.863 270.790, 375.315 272.979 C 373.767 275.167, 372.169 276.967, 371.764 276.979 C 371.359 276.990, 369.837 275.200, 368.381 273 C 366.925 270.800, 365.092 269, 364.308 269 C 363.445 269, 363.170 269.493, 363.611 270.250 M 384.611 270.250 C 385.012 270.938, 386.651 273.435, 388.253 275.800 L 391.165 280.100 387.082 285.507 C 382.616 291.423, 382.369 292, 384.307 292 C 385.027 292, 387.108 289.882, 388.932 287.294 L 392.249 282.588 394.375 285.077 C 395.544 286.446, 397.200 288.630, 398.055 289.931 C 398.910 291.232, 400.144 292.118, 400.798 291.898 C 401.548 291.647, 400.543 289.327, 398.070 285.604 L 394.153 279.707 398.108 274.354 C 400.748 270.780, 401.575 269, 400.596 269 C 399.790 269, 397.863 270.790, 396.315 272.979 C 394.767 275.167, 393.169 276.967, 392.764 276.979 C 392.359 276.990, 390.837 275.200, 389.381 273 C 387.925 270.800, 386.092 269, 385.308 269 C 384.445 269, 384.170 269.493, 384.611 270.250 M 405.611 270.250 C 406.012 270.938, 407.651 273.435, 409.253 275.800 L 412.165 280.100 408.082 285.507 C 403.616 291.423, 403.369 292, 405.307 292 C 406.027 292, 408.108 289.882, 409.932 287.294 L 413.249 282.588 415.375 285.077 C 416.544 286.446, 418.200 288.630, 419.055 289.931 C 419.910 291.232, 421.144 292.118, 421.798 291.898 C 422.548 291.647, 421.543 289.327, 419.070 285.604 L 415.153 279.707 419.108 274.354 C 421.748 270.780, 422.575 269, 421.596 269 C 420.790 269, 418.863 270.790, 417.315 272.979 C 415.767 275.167, 414.169 276.967, 413.764 276.979 C 413.359 276.990, 411.837 275.200, 410.381 273 C 408.925 270.800, 407.092 269, 406.308 269 C 405.445 269, 405.170 269.493, 405.611 270.250 M 186.193 317.750 C 186.390 318.163, 187.394 320.152, 188.423 322.170 L 190.294 325.841 187.063 329.920 C 185.127 332.364, 184.367 333.997, 185.166 333.993 C 185.900 333.989, 187.608 332.359, 188.963 330.371 C 191.264 326.992, 191.507 326.878, 192.669 328.628 C 195.675 333.153, 196.879 334.454, 197.493 333.840 C 197.854 333.479, 196.931 331.342, 195.442 329.092 L 192.734 325 195.381 321 C 198.549 316.214, 197.711 315.723, 193.988 320.184 L 191.330 323.367 189.449 320.184 C 188.415 318.433, 187.178 317, 186.701 317 C 186.224 317, 185.995 317.337, 186.193 317.750 M 201.193 317.750 C 201.390 318.163, 202.394 320.152, 203.423 322.170 L 205.294 325.841 202.063 329.920 C 200.127 332.364, 199.367 333.997, 200.166 333.993 C 200.900 333.989, 202.608 332.359, 203.963 330.371 C 206.264 326.992, 206.507 326.878, 207.669 328.628 C 210.675 333.153, 211.879 334.454, 212.493 333.840 C 212.854 333.479, 211.931 331.342, 210.442 329.092 L 207.734 325 210.381 321 C 213.549 316.214, 212.711 315.723, 208.988 320.184 L 206.330 323.367 204.449 320.184 C 203.415 318.433, 202.178 317, 201.701 317 C 201.224 317, 200.995 317.337, 201.193 317.750 M 217.100 325.021 C 215.779 329.427, 214.992 333.325, 215.350 333.683 C 215.707 334.041, 216.007 333.921, 216.015 333.417 C 216.023 332.913, 217.113 329.012, 218.438 324.750 C 219.762 320.488, 220.543 317.002, 220.173 317.005 C 219.803 317.008, 218.420 320.615, 217.100 325.021 M 223.193 317.750 C 223.390 318.163, 224.394 320.152, 225.423 322.170 L 227.294 325.841 224.063 329.920 C 222.127 332.364, 221.367 333.997, 222.166 333.993 C 222.900 333.989, 224.608 332.359, 225.963 330.371 C 228.264 326.992, 228.507 326.878, 229.669 328.628 C 232.675 333.153, 233.879 334.454, 234.493 333.840 C 234.854 333.479, 233.931 331.342, 232.442 329.092 L 229.734 325 232.381 321 C 235.549 316.214, 234.711 315.723, 230.988 320.184 L 228.330 323.367 226.449 320.184 C 225.415 318.433, 224.178 317, 223.701 317 C 223.224 317, 222.995 317.337, 223.193 317.750 M 238.193 317.750 C 238.390 318.163, 239.394 320.152, 240.423 322.170 L 242.294 325.841 239.063 329.920 C 237.127 332.364, 236.367 333.997, 237.166 333.993 C 237.900 333.989, 239.608 332.359, 240.963 330.371 C 243.264 326.992, 243.507 326.878, 244.669 328.628 C 247.675 333.153, 248.879 334.454, 249.493 333.840 C 249.854 333.479, 248.931 331.342, 247.442 329.092 L 244.734 325 247.381 321 C 250.549 316.214, 249.711 315.723, 245.988 320.184 L 243.330 323.367 241.449 320.184 C 240.415 318.433, 239.178 317, 238.701 317 C 238.224 317, 237.995 317.337, 238.193 317.750 M 393.400 356.500 C 393.401 364.750, 393.556 367.992, 393.744 363.704 C 393.932 359.417, 393.931 352.667, 393.742 348.704 C 393.552 344.742, 393.399 348.250, 393.400 356.500 M 58 362.500 L 58 371 62.500 371 C 65.667 371, 67.593 370.407, 69 369 C 71.427 366.573, 71.489 365.632, 69.364 363.507 C 68.144 362.286, 68.017 361.583, 68.864 360.736 C 72.215 357.385, 68.798 354, 62.066 354 L 58 354 58 362.500 M 74 362.500 C 74 372.569, 75.776 374.008, 76.204 364.286 L 76.500 357.571 80.867 364.286 C 83.270 367.979, 85.632 371, 86.117 371 C 86.603 371, 87 367.175, 87 362.500 C 87 357.500, 86.588 354, 86 354 C 85.432 354, 85 356.913, 85 360.739 L 85 367.479 80.479 360.739 C 77.992 357.033, 75.517 354, 74.979 354 C 74.417 354, 74 357.622, 74 362.500 M 91 362.500 C 91 370.946, 92.596 374.415, 93.190 367.258 C 93.631 361.937, 96.184 361.809, 99.577 366.937 C 101.056 369.172, 102.919 371, 103.717 371 C 104.725 371, 104.277 369.854, 102.252 367.250 C 97.517 361.161, 97.509 361.101, 101.084 357.414 C 105.922 352.422, 102.442 353.150, 97.288 358.208 L 93 362.416 93 358.208 C 93 355.894, 92.550 354, 92 354 C 91.412 354, 91 357.500, 91 362.500 M 117.350 354.994 C 114.314 356.219, 112.658 361.721, 114.091 365.830 C 115.970 371.222, 120.775 372.538, 125.375 368.920 C 126.829 367.776, 127.743 366.393, 127.405 365.846 C 127.061 365.289, 126.154 365.763, 125.339 366.927 C 123.519 369.525, 118.903 369.655, 116.655 367.171 C 112.970 363.100, 115.732 356, 121 356 C 122.288 356, 124.165 356.745, 125.171 357.655 C 126.177 358.565, 127 358.816, 127 358.212 C 127 356.774, 122.981 353.982, 121.027 354.063 C 120.187 354.098, 118.533 354.517, 117.350 354.994 M 133.958 357.698 C 133.280 359.789, 131.894 363.637, 130.878 366.250 C 129.848 368.895, 129.477 371, 130.039 371 C 130.595 371, 131.477 369.875, 132 368.500 C 132.754 366.517, 133.646 366, 136.315 366 C 138.933 366, 139.932 366.554, 140.818 368.500 C 141.445 369.875, 142.383 371, 142.903 371 C 144.172 371, 137.796 354.765, 136.335 354.278 C 135.705 354.068, 134.635 355.607, 133.958 357.698 M 146 362.500 C 146 367.500, 146.412 371, 147 371 C 147.550 371, 148 369.200, 148 367 C 148 363.406, 148.252 363, 150.486 363 C 152.278 363, 153.710 364.116, 155.619 367 C 157.075 369.200, 158.672 371, 159.168 371 C 160.188 371, 158.486 367.353, 156.289 364.830 C 154.998 363.348, 155.069 363.033, 156.917 362.044 C 159.575 360.622, 159.664 356.426, 157.066 355.035 C 156.002 354.466, 153.077 354, 150.566 354 L 146 354 146 362.500 M 163 362.500 L 163 371 167.389 371 C 173.791 371, 176.500 368.473, 176.500 362.500 C 176.500 356.527, 173.791 354, 167.389 354 L 163 354 163 362.500 M 180 362.500 C 180 367.500, 180.412 371, 181 371 C 181.550 371, 182 369.200, 182 367 L 182 363 186.500 363 L 191 363 191 367 C 191 369.200, 191.450 371, 192 371 C 192.588 371, 193 367.500, 193 362.500 C 193 357.500, 192.588 354, 192 354 C 191.450 354, 191 355.575, 191 357.500 C 191 360.981, 190.976 361, 186.500 361 C 182.024 361, 182 360.981, 182 357.500 C 182 355.575, 181.550 354, 181 354 C 180.412 354, 180 357.500, 180 362.500 M 199.463 356.278 C 195.636 359.570, 195.585 365.386, 199.354 368.628 C 202.537 371.366, 204.950 371.594, 208.932 369.535 C 214.125 366.850, 214.146 358.161, 208.966 355.483 C 204.982 353.422, 202.546 353.626, 199.463 356.278 M 216 362.500 L 216 371 221 371 C 223.750 371, 226 370.550, 226 370 C 226 369.450, 224.200 369, 222 369 L 218 369 218 361.500 C 218 357.167, 217.578 354, 217 354 C 216.412 354, 216 357.500, 216 362.500 M 229 362.500 L 229 371 233.389 371 C 239.791 371, 242.500 368.473, 242.500 362.500 C 242.500 356.527, 239.791 354, 233.389 354 L 229 354 229 362.500 M 246 362.500 L 246 371 252.500 371 C 256.167 371, 259 370.564, 259 370 C 259 369.450, 256.525 369, 253.500 369 C 248.056 369, 248 368.970, 248 366 C 248 363.067, 248.111 363, 253 363 C 255.750 363, 258 362.550, 258 362 C 258 361.450, 255.750 361, 253 361 C 248.333 361, 248 360.833, 248 358.500 C 248 356.167, 248.333 356, 253 356 C 255.750 356, 258 355.550, 258 355 C 258 354.444, 255.333 354, 252 354 L 246 354 246 362.500 M 262 362.500 C 262 367.500, 262.412 371, 263 371 C 263.550 371, 264 369.200, 264 367 C 264 363.406, 264.252 363, 266.486 363 C 268.278 363, 269.710 364.116, 271.619 367 C 273.075 369.200, 274.672 371, 275.168 371 C 276.188 371, 274.486 367.353, 272.289 364.830 C 270.998 363.348, 271.069 363.033, 272.917 362.044 C 275.575 360.622, 275.664 356.426, 273.066 355.035 C 272.002 354.466, 269.077 354, 266.566 354 L 262 354 262 362.500 M 60 358.500 C 60 360.917, 60.292 361.097, 63.750 360.810 C 66.730 360.564, 67.500 360.089, 67.500 358.500 C 67.500 356.911, 66.730 356.436, 63.750 356.190 C 60.292 355.903, 60 356.083, 60 358.500 M 148 358.500 C 148 360.958, 148.255 361.097, 152.250 360.807 C 155.731 360.556, 156.500 360.138, 156.500 358.500 C 156.500 356.862, 155.731 356.444, 152.250 356.193 C 148.255 355.903, 148 356.042, 148 358.500 M 165 362.500 L 165 369 168.429 369 C 172.765 369, 175 366.789, 175 362.500 C 175 358.211, 172.765 356, 168.429 356 L 165 356 165 362.500 M 199.557 358.223 C 196.197 363.020, 198.885 369, 204.402 369 C 206.317 369, 208.381 368.237, 209.345 367.171 C 211.542 364.744, 211.450 359.717, 209.171 357.655 C 206.490 355.228, 201.446 355.526, 199.557 358.223 M 231 362.500 L 231 369 234.429 369 C 238.765 369, 241 366.789, 241 362.500 C 241 358.211, 238.765 356, 234.429 356 L 231 356 231 362.500 M 264 358.500 C 264 360.958, 264.255 361.097, 268.250 360.807 C 271.731 360.556, 272.500 360.138, 272.500 358.500 C 272.500 356.862, 271.731 356.444, 268.250 356.193 C 264.255 355.903, 264 356.042, 264 358.500 M 135.070 359.315 C 133.518 363.399, 133.710 364, 136.567 364 C 138.767 364, 139.036 363.678, 138.446 361.750 C 136.955 356.874, 136.204 356.333, 135.070 359.315 M 60 366 C 60 369.046, 60.094 369.108, 64.250 368.807 C 68.035 368.534, 68.500 368.226, 68.500 366 C 68.500 363.774, 68.035 363.466, 64.250 363.193 C 60.094 362.892, 60 362.954, 60 366" stroke="none" fill="#c3c3c3" fill-rule="evenodd"/><path d="M 46.241 132.995 C 44.448 134.088, 42.084 136.448, 40.987 138.241 C 39.022 141.453, 38.997 143.137, 39.247 256.170 L 39.500 370.839 42 373.515 C 47.498 379.398, 31.922 379, 256.500 379 C 481.078 379, 465.502 379.398, 471 373.515 L 473.500 370.839 473.762 256.086 L 474.025 141.333 471.742 137.916 C 470.487 136.037, 467.894 133.713, 465.980 132.752 C 462.700 131.104, 450.606 131.003, 256 131.005 C 51.708 131.007, 49.465 131.029, 46.241 132.995 M 71 183 L 71 191 75.500 191 C 81.366 191, 84 188.521, 84 183 C 84 177.479, 81.366 175, 75.500 175 L 71 175 71 183 M 87 183 L 87 191 93 191 C 96.333 191, 99 190.556, 99 190 C 99 189.450, 96.750 189, 94 189 C 89.333 189, 89 188.833, 89 186.500 C 89 184.204, 89.367 184, 93.500 184 C 95.975 184, 98 183.550, 98 183 C 98 182.450, 95.975 182, 93.500 182 C 89.367 182, 89 181.796, 89 179.500 C 89 177.167, 89.333 177, 94 177 C 96.750 177, 99 176.550, 99 176 C 99 175.444, 96.333 175, 93 175 L 87 175 87 183 M 102 183 L 102 191 106.066 191 C 108.302 191, 111.002 190.534, 112.066 189.965 C 114.095 188.879, 114.687 185.543, 113.033 184.520 C 112.501 184.191, 112.332 182.591, 112.657 180.964 C 113.495 176.777, 111.623 175, 106.378 175 L 102 175 102 183 M 117 183 C 117 187.667, 117.417 191, 118 191 C 118.583 191, 119 187.667, 119 183 C 119 178.333, 118.583 175, 118 175 C 117.417 175, 117 178.333, 117 183 M 122 176 C 122 176.550, 123.125 177, 124.500 177 C 126.929 177, 127 177.200, 127 184 C 127 188, 127.429 191, 128 191 C 128.571 191, 129 188, 129 184 C 129 177.200, 129.071 177, 131.500 177 C 132.875 177, 134 176.550, 134 176 C 134 175.444, 131.333 175, 128 175 C 124.667 175, 122 175.444, 122 176 M 73 183 C 73 188.967, 73.016 189, 75.929 189 C 79.639 189, 82 186.667, 82 183 C 82 179.333, 79.639 177, 75.929 177 C 73.016 177, 73 177.033, 73 183 M 104 179.500 C 104 181.861, 104.329 182.095, 107.250 181.813 C 109.729 181.574, 110.500 181.025, 110.500 179.500 C 110.500 177.975, 109.729 177.426, 107.250 177.187 C 104.329 176.905, 104 177.139, 104 179.500 M 104 186.500 C 104 188.917, 104.292 189.097, 107.750 188.810 C 110.730 188.564, 111.500 188.089, 111.500 186.500 C 111.500 184.911, 110.730 184.436, 107.750 184.190 C 104.292 183.903, 104 184.083, 104 186.500 M 70.538 204.499 C 63.387 207.046, 63.047 208.132, 63.022 228.527 C 62.989 255.654, 61.257 254.500, 102 254.500 C 118.225 254.500, 132.703 254.163, 134.173 253.750 C 135.643 253.338, 138.231 251.835, 139.923 250.411 L 143 247.822 143 228.866 C 143 210.251, 142.957 209.866, 140.628 207.537 C 136.621 203.530, 132.193 203.009, 102.500 203.049 C 81.013 203.079, 73.578 203.416, 70.538 204.499 M 65.415 273.884 C 67.387 276.570, 69 279.197, 69 279.721 C 69 280.245, 67.175 283.223, 64.945 286.337 C 61.372 291.326, 61.129 292, 62.897 292 C 64.150 292, 66.067 290.310, 68 287.500 C 69.703 285.025, 71.258 283, 71.456 283 C 71.654 283, 73.095 285.024, 74.658 287.498 C 76.258 290.030, 78.265 291.997, 79.250 291.998 C 81.610 292.001, 81.527 291.704, 77.500 285.724 C 75.575 282.865, 74 280.184, 74 279.766 C 74 279.347, 75.617 276.754, 77.594 274.002 C 80.898 269.403, 81.019 269, 79.094 269 C 77.942 269, 76.988 269.337, 76.973 269.750 C 76.958 270.163, 75.697 272.006, 74.170 273.847 L 71.394 277.193 68.683 273.097 C 66.959 270.493, 65.217 269, 63.901 269 C 62.013 269, 62.147 269.432, 65.415 273.884 M 86.415 273.884 C 88.387 276.570, 90 279.197, 90 279.721 C 90 280.245, 88.175 283.223, 85.945 286.337 C 82.372 291.326, 82.129 292, 83.897 292 C 85.150 292, 87.067 290.310, 89 287.500 C 90.703 285.025, 92.258 283, 92.456 283 C 92.654 283, 94.095 285.024, 95.658 287.498 C 97.258 290.030, 99.265 291.997, 100.250 291.998 C 102.610 292.001, 102.527 291.704, 98.500 285.724 C 96.575 282.865, 95 280.184, 95 279.766 C 95 279.347, 96.617 276.754, 98.594 274.002 C 101.898 269.403, 102.019 269, 100.094 269 C 98.942 269, 97.988 269.337, 97.973 269.750 C 97.958 270.163, 96.697 272.006, 95.170 273.847 L 92.394 277.193 89.683 273.097 C 87.959 270.493, 86.217 269, 84.901 269 C 83.013 269, 83.147 269.432, 86.415 273.884 M 107.415 273.884 C 109.387 276.570, 111 279.197, 111 279.721 C 111 280.245, 109.175 283.223, 106.945 286.337 C 103.372 291.326, 103.129 292, 104.897 292 C 106.150 292, 108.067 290.310, 110 287.500 C 111.703 285.025, 113.258 283, 113.456 283 C 113.654 283, 115.095 285.024, 116.658 287.498 C 118.258 290.030, 120.265 291.997, 121.250 291.998 C 123.610 292.001, 123.527 291.704, 119.500 285.724 C 117.575 282.865, 116 280.184, 116 279.766 C 116 279.347, 117.617 276.754, 119.594 274.002 C 122.898 269.403, 123.019 269, 121.094 269 C 119.942 269, 118.988 269.337, 118.973 269.750 C 118.958 270.163, 117.697 272.006, 116.170 273.847 L 113.394 277.193 110.683 273.097 C 108.959 270.493, 107.217 269, 105.901 269 C 104.013 269, 104.147 269.432, 107.415 273.884 M 128.415 273.884 C 130.387 276.570, 132 279.197, 132 279.721 C 132 280.245, 130.175 283.223, 127.945 286.337 C 124.372 291.326, 124.129 292, 125.897 292 C 127.150 292, 129.067 290.310, 131 287.500 C 132.703 285.025, 134.258 283, 134.456 283 C 134.654 283, 136.095 285.024, 137.658 287.498 C 139.258 290.030, 141.265 291.997, 142.250 291.998 C 144.610 292.001, 144.527 291.704, 140.500 285.724 C 138.575 282.865, 137 280.184, 137 279.766 C 137 279.347, 138.617 276.754, 140.594 274.002 C 143.898 269.403, 144.019 269, 142.094 269 C 140.942 269, 139.988 269.337, 139.973 269.750 C 139.958 270.163, 138.697 272.006, 137.170 273.847 L 134.394 277.193 131.683 273.097 C 129.959 270.493, 128.217 269, 126.901 269 C 125.013 269, 125.147 269.432, 128.415 273.884 M 158.415 273.884 C 160.387 276.570, 162 279.197, 162 279.721 C 162 280.245, 160.175 283.223, 157.945 286.337 C 154.372 291.326, 154.129 292, 155.897 292 C 157.150 292, 159.067 290.310, 161 287.500 C 162.703 285.025, 164.258 283, 164.456 283 C 164.654 283, 166.095 285.024, 167.658 287.498 C 169.258 290.030, 171.265 291.997, 172.250 291.998 C 174.610 292.001, 174.527 291.704, 170.500 285.724 C 168.575 282.865, 167 280.184, 167 279.766 C 167 279.347, 168.617 276.754, 170.594 274.002 C 173.898 269.403, 174.019 269, 172.094 269 C 170.942 269, 169.988 269.337, 169.973 269.750 C 169.958 270.163, 168.697 272.006, 167.170 273.847 L 164.394 277.193 161.683 273.097 C 159.959 270.493, 158.217 269, 156.901 269 C 155.013 269, 155.147 269.432, 158.415 273.884 M 179.415 273.884 C 181.387 276.570, 183 279.197, 183 279.721 C 183 280.245, 181.175 283.223, 178.945 286.337 C 175.372 291.326, 175.129 292, 176.897 292 C 178.150 292, 180.067 290.310, 182 287.500 C 183.703 285.025, 185.258 283, 185.456 283 C 185.654 283, 187.095 285.024, 188.658 287.498 C 190.258 290.030, 192.265 291.997, 193.250 291.998 C 195.610 292.001, 195.527 291.704, 191.500 285.724 C 189.575 282.865, 188 280.184, 188 279.766 C 188 279.347, 189.617 276.754, 191.594 274.002 C 194.898 269.403, 195.019 269, 193.094 269 C 191.942 269, 190.988 269.337, 190.973 269.750 C 190.958 270.163, 189.697 272.006, 188.170 273.847 L 185.394 277.193 182.683 273.097 C 180.959 270.493, 179.217 269, 177.901 269 C 176.013 269, 176.147 269.432, 179.415 273.884 M 200.415 273.884 C 202.387 276.570, 204 279.197, 204 279.721 C 204 280.245, 202.175 283.223, 199.945 286.337 C 196.372 291.326, 196.129 292, 197.897 292 C 199.150 292, 201.067 290.310, 203 287.500 C 204.703 285.025, 206.258 283, 206.456 283 C 206.654 283, 208.095 285.024, 209.658 287.498 C 211.258 290.030, 213.265 291.997, 214.250 291.998 C 216.610 292.001, 216.527 291.704, 212.500 285.724 C 210.575 282.865, 209 280.184, 209 279.766 C 209 279.347, 210.617 276.754, 212.594 274.002 C 215.898 269.403, 216.019 269, 214.094 269 C 212.942 269, 211.988 269.337, 211.973 269.750 C 211.958 270.163, 210.697 272.006, 209.170 273.847 L 206.394 277.193 203.683 273.097 C 201.959 270.493, 200.217 269, 198.901 269 C 197.013 269, 197.147 269.432, 200.415 273.884 M 221.415 273.884 C 223.387 276.570, 225 279.197, 225 279.721 C 225 280.245, 223.175 283.223, 220.945 286.337 C 217.372 291.326, 217.129 292, 218.897 292 C 220.150 292, 222.067 290.310, 224 287.500 C 225.703 285.025, 227.258 283, 227.456 283 C 227.654 283, 229.095 285.024, 230.658 287.498 C 232.258 290.030, 234.265 291.997, 235.250 291.998 C 237.610 292.001, 237.527 291.704, 233.500 285.724 C 231.575 282.865, 230 280.184, 230 279.766 C 230 279.347, 231.617 276.754, 233.594 274.002 C 236.898 269.403, 237.019 269, 235.094 269 C 233.942 269, 232.988 269.337, 232.973 269.750 C 232.958 270.163, 231.697 272.006, 230.170 273.847 L 227.394 277.193 224.683 273.097 C 222.959 270.493, 221.217 269, 219.901 269 C 218.013 269, 218.147 269.432, 221.415 273.884 M 251.415 273.884 C 253.387 276.570, 255 279.197, 255 279.721 C 255 280.245, 253.175 283.223, 250.945 286.337 C 247.372 291.326, 247.129 292, 248.897 292 C 250.150 292, 252.067 290.310, 254 287.500 C 255.703 285.025, 257.258 283, 257.456 283 C 257.654 283, 259.095 285.024, 260.658 287.498 C 262.258 290.030, 264.265 291.997, 265.250 291.998 C 267.610 292.001, 267.527 291.704, 263.500 285.724 C 261.575 282.865, 260 280.184, 260 279.766 C 260 279.347, 261.617 276.754, 263.594 274.002 C 266.898 269.403, 267.019 269, 265.094 269 C 263.942 269, 262.988 269.337, 262.973 269.750 C 262.958 270.163, 261.697 272.006, 260.170 273.847 L 257.394 277.193 254.683 273.097 C 252.959 270.493, 251.217 269, 249.901 269 C 248.013 269, 248.147 269.432, 251.415 273.884 M 272.415 273.884 C 274.387 276.570, 276 279.197, 276 279.721 C 276 280.245, 274.175 283.223, 271.945 286.337 C 268.372 291.326, 268.129 292, 269.897 292 C 271.150 292, 273.067 290.310, 275 287.500 C 276.703 285.025, 278.258 283, 278.456 283 C 278.654 283, 280.095 285.024, 281.658 287.498 C 283.258 290.030, 285.265 291.997, 286.250 291.998 C 288.610 292.001, 288.527 291.704, 284.500 285.724 C 282.575 282.865, 281 280.184, 281 279.766 C 281 279.347, 282.617 276.754, 284.594 274.002 C 287.898 269.403, 288.019 269, 286.094 269 C 284.942 269, 283.988 269.337, 283.973 269.750 C 283.958 270.163, 282.697 272.006, 281.170 273.847 L 278.394 277.193 275.683 273.097 C 273.959 270.493, 272.217 269, 270.901 269 C 269.013 269, 269.147 269.432, 272.415 273.884 M 293.415 273.884 C 295.387 276.570, 297 279.197, 297 279.721 C 297 280.245, 295.175 283.223, 292.945 286.337 C 289.372 291.326, 289.129 292, 290.897 292 C 292.150 292, 294.067 290.310, 296 287.500 C 297.703 285.025, 299.258 283, 299.456 283 C 299.654 283, 301.095 285.024, 302.658 287.498 C 304.258 290.030, 306.265 291.997, 307.250 291.998 C 309.610 292.001, 309.527 291.704, 305.500 285.724 C 303.575 282.865, 302 280.184, 302 279.766 C 302 279.347, 303.617 276.754, 305.594 274.002 C 308.898 269.403, 309.019 269, 307.094 269 C 305.942 269, 304.988 269.337, 304.973 269.750 C 304.958 270.163, 303.697 272.006, 302.170 273.847 L 299.394 277.193 296.683 273.097 C 294.959 270.493, 293.217 269, 291.901 269 C 290.013 269, 290.147 269.432, 293.415 273.884 M 314.415 273.884 C 316.387 276.570, 318 279.197, 318 279.721 C 318 280.245, 316.175 283.223, 313.945 286.337 C 310.372 291.326, 310.129 292, 311.897 292 C 313.150 292, 315.067 290.310, 317 287.500 C 318.703 285.025, 320.258 283, 320.456 283 C 320.654 283, 322.095 285.024, 323.658 287.498 C 325.258 290.030, 327.265 291.997, 328.250 291.998 C 330.610 292.001, 330.527 291.704, 326.500 285.724 C 324.575 282.865, 323 280.184, 323 279.766 C 323 279.347, 324.617 276.754, 326.594 274.002 C 329.898 269.403, 330.019 269, 328.094 269 C 326.942 269, 325.988 269.337, 325.973 269.750 C 325.958 270.163, 324.697 272.006, 323.170 273.847 L 320.394 277.193 317.683 273.097 C 315.959 270.493, 314.217 269, 312.901 269 C 311.013 269, 311.147 269.432, 314.415 273.884 M 344.415 273.884 C 346.387 276.570, 348 279.197, 348 279.721 C 348 280.245, 346.175 283.223, 343.945 286.337 C 340.372 291.326, 340.129 292, 341.897 292 C 343.150 292, 345.067 290.310, 347 287.500 C 348.703 285.025, 350.258 283, 350.456 283 C 350.654 283, 352.095 285.024, 353.658 287.498 C 355.258 290.030, 357.265 291.997, 358.250 291.998 C 360.610 292.001, 360.527 291.704, 356.500 285.724 C 354.575 282.865, 353 280.184, 353 279.766 C 353 279.347, 354.617 276.754, 356.594 274.002 C 359.898 269.403, 360.019 269, 358.094 269 C 356.942 269, 355.988 269.337, 355.973 269.750 C 355.958 270.163, 354.697 272.006, 353.170 273.847 L 350.394 277.193 347.683 273.097 C 345.959 270.493, 344.217 269, 342.901 269 C 341.013 269, 341.147 269.432, 344.415 273.884 M 365.415 273.884 C 367.387 276.570, 369 279.197, 369 279.721 C 369 280.245, 367.175 283.223, 364.945 286.337 C 361.372 291.326, 361.129 292, 362.897 292 C 364.150 292, 366.067 290.310, 368 287.500 C 369.703 285.025, 371.258 283, 371.456 283 C 371.654 283, 373.095 285.024, 374.658 287.498 C 376.258 290.030, 378.265 291.997, 379.250 291.998 C 381.610 292.001, 381.527 291.704, 377.500 285.724 C 375.575 282.865, 374 280.184, 374 279.766 C 374 279.347, 375.617 276.754, 377.594 274.002 C 380.898 269.403, 381.019 269, 379.094 269 C 377.942 269, 376.988 269.337, 376.973 269.750 C 376.958 270.163, 375.697 272.006, 374.170 273.847 L 371.394 277.193 368.683 273.097 C 366.959 270.493, 365.217 269, 363.901 269 C 362.013 269, 362.147 269.432, 365.415 273.884 M 386.415 273.884 C 388.387 276.570, 390 279.197, 390 279.721 C 390 280.245, 388.175 283.223, 385.945 286.337 C 382.372 291.326, 382.129 292, 383.897 292 C 385.150 292, 387.067 290.310, 389 287.500 C 390.703 285.025, 392.258 283, 392.456 283 C 392.654 283, 394.095 285.024, 395.658 287.498 C 397.258 290.030, 399.265 291.997, 400.250 291.998 C 402.610 292.001, 402.527 291.704, 398.500 285.724 C 396.575 282.865, 395 280.184, 395 279.766 C 395 279.347, 396.617 276.754, 398.594 274.002 C 401.898 269.403, 402.019 269, 400.094 269 C 398.942 269, 397.988 269.337, 397.973 269.750 C 397.958 270.163, 396.697 272.006, 395.170 273.847 L 392.394 277.193 389.683 273.097 C 387.959 270.493, 386.217 269, 384.901 269 C 383.013 269, 383.147 269.432, 386.415 273.884 M 407.415 273.884 C 409.387 276.570, 411 279.197, 411 279.721 C 411 280.245, 409.175 283.223, 406.945 286.337 C 403.372 291.326, 403.129 292, 404.897 292 C 406.150 292, 408.067 290.310, 410 287.500 C 411.703 285.025, 413.258 283, 413.456 283 C 413.654 283, 415.095 285.024, 416.658 287.498 C 418.258 290.030, 420.265 291.997, 421.250 291.998 C 423.610 292.001, 423.527 291.704, 419.500 285.724 C 417.575 282.865, 416 280.184, 416 279.766 C 416 279.347, 417.617 276.754, 419.594 274.002 C 422.898 269.403, 423.019 269, 421.094 269 C 419.942 269, 418.988 269.337, 418.973 269.750 C 418.958 270.163, 417.697 272.006, 416.170 273.847 L 413.394 277.193 410.683 273.097 C 408.959 270.493, 407.217 269, 405.901 269 C 404.013 269, 404.147 269.432, 407.415 273.884 M 437.845 297.523 C 441.594 300.678, 445 307.569, 445 312 C 445 316.431, 441.594 323.322, 437.845 326.477 C 436.196 327.864, 435.284 329, 435.820 329 C 437.324 329, 443.090 322.029, 444.625 318.355 C 446.373 314.172, 446.373 309.828, 444.625 305.645 C 443.090 301.971, 437.324 295, 435.820 295 C 435.284 295, 436.196 296.136, 437.845 297.523 M 436.108 301.993 C 442.543 308.757, 442.268 316.923, 435.404 322.950 C 433.494 324.628, 432.344 326, 432.849 326 C 433.354 326, 435.348 324.251, 437.279 322.112 C 443.335 315.410, 443.363 309.120, 437.368 302.117 C 435.430 299.853, 433.499 298, 433.077 298 C 432.655 298, 434.019 299.797, 436.108 301.993 M 433.026 303.872 C 436.306 307.152, 437.512 310.825, 436.557 314.628 C 436.194 316.074, 434.605 318.549, 433.026 320.128 C 431.446 321.708, 430.529 323, 430.988 323 C 432.351 323, 436.952 317.039, 437.609 314.423 C 437.943 313.090, 437.943 310.910, 437.609 309.577 C 436.952 306.961, 432.351 301, 430.988 301 C 430.529 301, 431.446 302.292, 433.026 303.872 M 430.386 306.827 C 431.824 308.656, 433 310.984, 433 312 C 433 313.016, 431.824 315.344, 430.386 317.173 L 427.773 320.500 430.886 317.234 C 432.599 315.438, 434 313.083, 434 312 C 434 310.917, 432.599 308.562, 430.886 306.766 L 427.773 303.500 430.386 306.827 M 185.605 318.250 C 186.003 318.938, 187.189 320.743, 188.241 322.263 L 190.154 325.025 187.046 329.252 C 183.243 334.424, 185.023 335.873, 189.077 330.906 L 191.827 327.536 193.663 330.762 C 196.222 335.255, 200.479 335.261, 204.163 330.777 L 206.827 327.536 208.663 330.762 C 210.021 333.146, 211.207 333.989, 213.210 333.994 C 215.686 333.999, 216.098 333.417, 217.988 327.250 C 219.126 323.538, 220.299 319.712, 220.596 318.750 C 220.892 317.788, 220.674 317, 220.110 317 C 219.546 317, 218.124 320.262, 216.949 324.250 C 215.775 328.238, 214.477 331.856, 214.066 332.290 C 213.655 332.725, 212.104 331.245, 210.619 329.001 C 207.935 324.945, 207.930 324.906, 209.796 322.211 C 212.941 317.667, 213.194 317, 211.775 317 C 211.036 317, 209.603 318.402, 208.590 320.116 L 206.750 323.232 204.777 320.116 C 203.691 318.402, 202.146 317, 201.343 317 C 199.796 317, 200.011 317.598, 203.230 322.248 L 205.133 324.995 202.316 328.976 C 200.767 331.166, 199.222 332.967, 198.883 332.979 C 198.543 332.990, 197.063 331.182, 195.593 328.961 C 192.936 324.946, 192.931 324.905, 194.796 322.211 C 197.941 317.667, 198.194 317, 196.775 317 C 196.036 317, 194.603 318.402, 193.590 320.116 L 191.750 323.232 189.777 320.116 C 187.933 317.205, 183.977 315.435, 185.605 318.250 M 222.605 318.250 C 223.003 318.938, 224.189 320.743, 225.241 322.263 L 227.154 325.025 224.046 329.252 C 220.243 334.424, 222.023 335.873, 226.077 330.906 L 228.827 327.536 230.663 330.762 C 233.222 335.255, 237.479 335.261, 241.163 330.777 L 243.827 327.536 245.663 330.762 C 246.674 332.536, 248.309 333.990, 249.298 333.994 C 250.834 333.999, 250.644 333.343, 247.990 329.486 L 244.884 324.971 246.778 322.236 C 249.942 317.666, 250.196 317, 248.775 317 C 248.036 317, 246.603 318.402, 245.590 320.116 L 243.750 323.232 241.777 320.116 C 240.691 318.402, 239.146 317, 238.343 317 C 236.796 317, 237.011 317.598, 240.230 322.248 L 242.133 324.995 239.316 328.976 C 237.767 331.166, 236.222 332.967, 235.883 332.979 C 235.543 332.990, 234.063 331.182, 232.593 328.961 C 229.936 324.946, 229.931 324.905, 231.796 322.211 C 234.941 317.667, 235.194 317, 233.775 317 C 233.036 317, 231.603 318.402, 230.590 320.116 L 228.750 323.232 226.777 320.116 C 224.933 317.205, 220.977 315.435, 222.605 318.250 M 364.182 353.250 C 366.417 359.438, 368.715 365.962, 369.290 367.750 C 370.127 370.353, 370.872 371, 373.027 371 C 375.544 371, 376.082 370.112, 381.360 357.250 C 384.464 349.688, 387.002 343.163, 387.002 342.750 C 387.001 342.337, 386.142 342, 385.093 342 C 383.587 342, 382.178 344.537, 378.397 354.051 L 373.609 366.103 371.975 361.801 C 371.076 359.436, 369.094 354.012, 367.569 349.750 C 365.184 343.083, 364.470 342, 362.458 342 L 360.120 342 364.182 353.250 M 390 356.500 C 390 370.333, 390.092 371, 392 371 C 393.908 371, 394 370.333, 394 356.500 C 394 342.667, 393.908 342, 392 342 C 390.092 342, 390 342.667, 390 356.500 M 404.017 343.286 C 400.737 344.945, 399.278 349.121, 400.806 352.474 C 402.085 355.280, 403.684 356.118, 412.250 358.474 C 417.136 359.818, 418 360.403, 418 362.367 C 418 363.874, 417.113 365.083, 415.453 365.839 C 411.234 367.762, 408.057 367.210, 404.846 364 C 401.915 361.069, 399 360.048, 399 361.953 C 399 362.477, 399.538 364.086, 400.195 365.528 C 403.179 372.077, 416.131 373.061, 420.718 367.087 C 422.589 364.650, 422.253 359.539, 420.093 357.584 C 419.045 356.635, 415.557 355.174, 412.343 354.337 C 405.966 352.677, 404 351.502, 404 349.353 C 404 345.563, 415.742 345.298, 416.728 349.066 C 417.049 350.296, 418.101 351, 419.619 351 C 421.916 351, 421.956 350.878, 420.682 347.750 C 419.954 345.962, 418.266 343.944, 416.929 343.265 C 413.793 341.670, 407.189 341.681, 404.017 343.286 M 433.891 344.750 C 433.308 346.262, 431.116 352, 429.020 357.500 C 426.924 363, 424.889 368.288, 424.498 369.250 C 423.938 370.627, 424.295 371, 426.174 371 C 428.086 371, 428.854 370.153, 430.031 366.750 L 431.500 362.500 437.407 362.500 L 443.314 362.500 444.864 366.750 C 446.099 370.139, 446.899 371, 448.814 371 C 451.601 371, 451.956 372.432, 444.779 354.750 C 440.234 343.553, 439.320 342, 437.277 342 C 435.663 342, 434.626 342.842, 433.891 344.750 M 435.316 352.118 L 433.263 357.500 436.732 357.816 C 438.640 357.990, 440.445 357.889, 440.743 357.590 C 441.042 357.292, 440.404 354.727, 439.327 351.892 L 437.368 346.736 435.316 352.118 M 58 362.500 L 58 371 62.929 371 C 66.076 371, 68.425 370.432, 69.429 369.429 C 71.183 367.674, 71.514 364.436, 70.033 363.520 C 69.501 363.191, 69.332 361.591, 69.657 359.964 C 70.520 355.648, 68.647 354, 62.878 354 L 58 354 58 362.500 M 74 362.500 C 74 372.295, 75.756 374.106, 76.202 364.772 L 76.500 358.544 80.500 364.763 C 82.700 368.184, 85.063 370.986, 85.750 370.991 C 86.653 370.998, 87 368.638, 87 362.500 C 87 352.705, 85.244 350.894, 84.798 360.228 L 84.500 366.456 80.500 360.237 C 78.300 356.816, 75.938 354.014, 75.250 354.009 C 74.347 354.002, 74 356.362, 74 362.500 M 91 362.500 C 91 367.500, 91.412 371, 92 371 C 92.550 371, 93 369.705, 93 368.122 C 93 365.680, 95.497 361.902, 96.315 363.107 C 99.636 368.004, 102.416 371, 103.636 371 C 104.728 371, 104.098 369.539, 101.452 365.935 L 97.734 360.870 101.063 357.435 C 105.915 352.429, 102.454 353.138, 97.288 358.208 L 93 362.416 93 358.208 C 93 355.894, 92.550 354, 92 354 C 91.412 354, 91 357.500, 91 362.500 M 115.455 356.455 C 110.301 361.608, 113.852 371, 120.955 371 C 123.896 371, 128 368.087, 128 366 C 128 364.403, 126.584 364.837, 124.732 367 C 120.295 372.182, 113.393 366.356, 115.963 359.597 C 117.230 356.264, 121.415 355.161, 123.982 357.484 C 126.847 360.077, 128.881 358.881, 126.188 356.188 C 123.219 353.219, 118.574 353.335, 115.455 356.455 M 134.118 356.250 C 133.660 357.488, 132.321 361.104, 131.143 364.288 C 128.606 371.139, 128.622 371, 130.392 371 C 131.157 371, 132.066 369.875, 132.411 368.500 C 132.925 366.452, 133.647 366, 136.411 366 C 139.174 366, 139.897 366.452, 140.411 368.500 C 140.756 369.875, 141.742 371, 142.602 371 C 143.463 371, 144.017 370.649, 143.833 370.220 C 143.650 369.791, 142.202 365.966, 140.616 361.720 C 137.656 353.798, 135.650 352.109, 134.118 356.250 M 146 362.500 C 146 367.500, 146.412 371, 147 371 C 147.550 371, 148 369.200, 148 367 C 148 363.729, 148.348 363, 149.911 363 C 151.769 363, 157 368.222, 157 370.077 C 157 370.585, 157.675 371, 158.500 371 C 160.465 371, 160.395 370.376, 157.996 366.494 C 156.228 363.633, 156.169 363.105, 157.496 362.003 C 159.301 360.505, 159.464 356.864, 157.800 355.200 C 157.140 354.540, 154.215 354, 151.300 354 L 146 354 146 362.500 M 163 362.500 L 163 371 167.927 371 C 172.060 371, 173.189 370.575, 174.927 368.365 C 176.067 366.916, 177 364.277, 177 362.500 C 177 360.723, 176.067 358.084, 174.927 356.635 C 173.189 354.425, 172.060 354, 167.927 354 L 163 354 163 362.500 M 180 362.500 C 180 367.500, 180.412 371, 181 371 C 181.550 371, 182 369.200, 182 367 L 182 363 186.500 363 L 191 363 191 367 C 191 369.200, 191.450 371, 192 371 C 192.588 371, 193 367.500, 193 362.500 C 193 357.500, 192.588 354, 192 354 C 191.450 354, 191 355.575, 191 357.500 C 191 360.981, 190.976 361, 186.500 361 C 182.024 361, 182 360.981, 182 357.500 C 182 355.575, 181.550 354, 181 354 C 180.412 354, 180 357.500, 180 362.500 M 198.455 356.455 C 193.062 361.847, 196.866 371, 204.500 371 C 209.377 371, 213 367.377, 213 362.500 C 213 354.866, 203.847 351.062, 198.455 356.455 M 216 362.500 L 216 371 221.500 371 C 224.525 371, 227 370.550, 227 370 C 227 369.450, 224.975 369, 222.500 369 L 218 369 218 361.500 C 218 357.167, 217.578 354, 217 354 C 216.412 354, 216 357.500, 216 362.500 M 229 362.500 L 229 371 233.927 371 C 238.060 371, 239.189 370.575, 240.927 368.365 C 242.067 366.916, 243 364.277, 243 362.500 C 243 360.723, 242.067 358.084, 240.927 356.635 C 239.189 354.425, 238.060 354, 233.927 354 L 229 354 229 362.500 M 246 362.500 L 246 371 252.500 371 C 256.167 371, 259 370.564, 259 370 C 259 369.450, 256.525 369, 253.500 369 C 248.056 369, 248 368.970, 248 366 C 248 363.067, 248.111 363, 253 363 C 255.750 363, 258 362.550, 258 362 C 258 361.450, 255.750 361, 253 361 C 248.333 361, 248 360.833, 248 358.500 C 248 356.167, 248.333 356, 253 356 C 255.750 356, 258 355.550, 258 355 C 258 354.444, 255.333 354, 252 354 L 246 354 246 362.500 M 262 362.500 C 262 367.500, 262.412 371, 263 371 C 263.550 371, 264 369.200, 264 367 C 264 363.729, 264.348 363, 265.911 363 C 267.769 363, 273 368.222, 273 370.077 C 273 370.585, 273.675 371, 274.500 371 C 276.465 371, 276.395 370.376, 273.996 366.494 C 272.228 363.633, 272.169 363.105, 273.496 362.003 C 275.301 360.505, 275.464 356.864, 273.800 355.200 C 273.140 354.540, 270.215 354, 267.300 354 L 262 354 262 362.500 M 60 358.500 C 60 360.917, 60.292 361.097, 63.750 360.810 C 66.730 360.564, 67.500 360.089, 67.500 358.500 C 67.500 356.911, 66.730 356.436, 63.750 356.190 C 60.292 355.903, 60 356.083, 60 358.500 M 148 358.500 C 148 360.958, 148.255 361.097, 152.250 360.807 C 155.731 360.556, 156.500 360.138, 156.500 358.500 C 156.500 356.862, 155.731 356.444, 152.250 356.193 C 148.255 355.903, 148 356.042, 148 358.500 M 165 362.500 L 165 369 168.378 369 C 172.476 369, 174.400 366.923, 174.400 362.500 C 174.400 358.077, 172.476 356, 168.378 356 L 165 356 165 362.500 M 200.491 357.383 C 199.221 358.312, 198.600 359.991, 198.600 362.500 C 198.600 368.591, 204.748 371.252, 209 367 C 214.608 361.392, 206.909 352.690, 200.491 357.383 M 231 362.500 L 231 369 234.378 369 C 238.476 369, 240.400 366.923, 240.400 362.500 C 240.400 358.077, 238.476 356, 234.378 356 L 231 356 231 362.500 M 264 358.500 C 264 360.958, 264.255 361.097, 268.250 360.807 C 271.731 360.556, 272.500 360.138, 272.500 358.500 C 272.500 356.862, 271.731 356.444, 268.250 356.193 C 264.255 355.903, 264 356.042, 264 358.500 M 135.095 360.389 C 133.769 363.717, 134.057 364.289, 136.827 363.831 C 138.653 363.528, 138.714 363.242, 137.535 360.500 L 136.245 357.500 135.095 360.389 M 60 366 C 60 368.995, 60.151 369.108, 63.750 368.810 C 67.001 368.541, 67.500 368.167, 67.500 366 C 67.500 363.833, 67.001 363.459, 63.750 363.190 C 60.151 362.892, 60 363.005, 60 366" stroke="none" fill="#0705cc" fill-rule="evenodd"/><path d="M 0 256.002 L 0 512.004 256.250 511.752 L 512.500 511.500 512.752 255.750 L 513.004 0 256.502 0 L 0 0 0 256.002 M 0.492 256.500 C 0.492 397.300, 0.608 454.751, 0.750 384.170 C 0.892 313.588, 0.892 198.388, 0.750 128.170 C 0.608 57.951, 0.492 115.700, 0.492 256.500 M 45.500 127.400 C 41.546 129.143, 37.051 133.717, 35.360 137.718 C 34.240 140.368, 34 161.096, 34 255.152 C 34 367.983, 34.025 369.420, 36.035 373.573 C 37.193 375.964, 39.851 379.011, 42.200 380.638 L 46.329 383.500 256.415 383.500 L 466.500 383.500 470.116 381.053 C 472.104 379.707, 474.804 377.040, 476.116 375.126 L 478.500 371.647 478.788 257.574 C 478.946 194.833, 478.812 142.028, 478.489 140.229 C 477.724 135.971, 472.566 130.162, 467.509 127.865 C 463.672 126.122, 454.590 126.045, 256 126.061 C 86.165 126.075, 47.955 126.318, 45.500 127.400 M 437.845 297.523 C 441.594 300.678, 445 307.569, 445 312 C 445 316.431, 441.594 323.322, 437.845 326.477 C 436.196 327.864, 435.284 329, 435.820 329 C 437.324 329, 443.090 322.029, 444.625 318.355 C 446.373 314.172, 446.373 309.828, 444.625 305.645 C 443.090 301.971, 437.324 295, 435.820 295 C 435.284 295, 436.196 296.136, 437.845 297.523 M 436.108 301.993 C 442.543 308.757, 442.268 316.923, 435.404 322.950 C 433.494 324.628, 432.344 326, 432.849 326 C 433.354 326, 435.348 324.251, 437.279 322.112 C 443.335 315.410, 443.363 309.120, 437.368 302.117 C 435.430 299.853, 433.499 298, 433.077 298 C 432.655 298, 434.019 299.797, 436.108 301.993 M 433.026 303.872 C 436.306 307.152, 437.512 310.825, 436.557 314.628 C 436.194 316.074, 434.605 318.549, 433.026 320.128 C 431.446 321.708, 430.529 323, 430.988 323 C 432.351 323, 436.952 317.039, 437.609 314.423 C 437.943 313.090, 437.943 310.910, 437.609 309.577 C 436.952 306.961, 432.351 301, 430.988 301 C 430.529 301, 431.446 302.292, 433.026 303.872 M 430.386 306.827 C 431.824 308.656, 433 310.984, 433 312 C 433 313.016, 431.824 315.344, 430.386 317.173 L 427.773 320.500 430.886 317.234 C 432.599 315.438, 434 313.083, 434 312 C 434 310.917, 432.599 308.562, 430.886 306.766 L 427.773 303.500 430.386 306.827 M 361.543 344.158 C 361.948 345.446, 364.190 351.900, 366.525 358.500 C 372.867 376.425, 373.500 375.963, 386.059 344.250 C 386.776 342.441, 386.612 342, 385.222 342 C 383.933 342, 382.264 345.194, 378.651 354.571 C 375.987 361.484, 373.617 366.950, 373.384 366.717 C 373.150 366.483, 371.019 360.939, 368.649 354.396 C 365.596 345.972, 363.823 342.400, 362.572 342.158 C 361.137 341.880, 360.944 342.254, 361.543 344.158 M 390 356.500 C 390 368.722, 390.236 371, 391.500 371 C 392.764 371, 393 368.722, 393 356.500 C 393 344.278, 392.764 342, 391.500 342 C 390.236 342, 390 344.278, 390 356.500 M 405 343.752 C 402.200 345.150, 401.436 346.168, 401.180 348.844 C 400.750 353.327, 402.980 355.567, 409.333 357.033 C 415.271 358.403, 419 360.461, 419 362.368 C 419 364.907, 415.417 367, 411.072 367 C 407.590 367, 406.270 366.430, 403.917 363.911 C 400.159 359.889, 398.489 360.463, 400.753 365 C 404.281 372.068, 417.022 372.725, 420.491 366.018 C 421.534 364, 421.721 362.396, 421.101 360.765 C 419.819 357.393, 418.240 356.377, 411.588 354.645 C 408.337 353.798, 404.992 352.421, 404.155 351.584 C 402.793 350.222, 402.826 349.849, 404.472 348.031 C 407.263 344.947, 414.235 345.212, 416.821 348.500 C 418.521 350.661, 421 351.886, 421 350.565 C 421 348.032, 418.402 344.648, 415.538 343.452 C 411.042 341.573, 409.259 341.624, 405 343.752 M 430.190 355.706 C 427.328 363.293, 424.989 369.837, 424.993 370.250 C 424.997 370.663, 425.637 371, 426.417 371 C 427.196 371, 428.469 369.087, 429.246 366.750 L 430.659 362.500 437.178 362.208 L 443.696 361.916 445.431 366.458 C 446.588 369.489, 447.756 371, 448.939 371 C 450.451 371, 449.859 368.892, 444.940 356.750 C 437.232 337.726, 436.979 337.708, 430.190 355.706 M 436.490 346.500 C 436.113 347.600, 435.173 350.197, 434.402 352.270 C 432.378 357.713, 432.533 358, 437.500 358 C 439.975 358, 441.993 357.887, 441.983 357.750 C 441.974 357.613, 440.889 354.575, 439.571 351 C 437.687 345.886, 437.030 344.926, 436.490 346.500" stroke="none" fill="none" fill-rule="evenodd"/><path d="M 45.500 127.400 C 41.546 129.143, 37.051 133.717, 35.360 137.718 C 34.240 140.368, 34 161.096, 34 255.152 C 34 367.983, 34.025 369.420, 36.035 373.573 C 37.193 375.964, 39.851 379.011, 42.200 380.638 L 46.329 383.500 256.415 383.500 L 466.500 383.500 470.116 381.053 C 472.104 379.707, 474.804 377.040, 476.116 375.126 L 478.500 371.647 478.788 257.574 C 478.946 194.833, 478.812 142.028, 478.489 140.229 C 477.724 135.971, 472.566 130.162, 467.509 127.865 C 463.672 126.122, 454.590 126.045, 256 126.061 C 86.165 126.075, 47.955 126.318, 45.500 127.400 M 46.241 132.995 C 44.448 134.088, 42.084 136.448, 40.987 138.241 C 39.022 141.453, 38.997 143.137, 39.247 256.170 L 39.500 370.839 42 373.515 C 47.498 379.398, 31.922 379, 256.500 379 C 481.078 379, 465.502 379.398, 471 373.515 L 473.500 370.839 473.762 256.086 L 474.025 141.333 471.742 137.916 C 470.487 136.037, 467.894 133.713, 465.980 132.752 C 462.700 131.104, 450.606 131.003, 256 131.005 C 51.708 131.007, 49.465 131.029, 46.241 132.995" stroke="none" fill="#000000" fill-rule="evenodd"/></svg>