<?xml version="1.0" standalone="no"?>
<!DOCTYPE svg PUBLIC "-//W3C//DTD SVG 20010904//EN"
 "http://www.w3.org/TR/2001/REC-SVG-20010904/DTD/svg10.dtd">
<svg version="1.0" xmlns="http://www.w3.org/2000/svg"
 width="512.000000pt" height="512.000000pt" viewBox="0 0 512.000000 512.000000"
 preserveAspectRatio="xMidYMid meet">

<g transform="translate(0.000000,512.000000) scale(0.100000,-0.100000)"
fill="#000000" stroke="none">
<path d="M455 3846 c-40 -17 -84 -63 -101 -103 -12 -27 -14 -234 -14 -1175 0
-1128 0 -1142 20 -1184 12 -24 39 -54 62 -70 l41 -29 2101 0 2101 0 36 24 c20
14 47 41 60 60 l24 35 3 1140 c1 628 0 1156 -3 1174 -8 42 -59 100 -110 123
-38 18 -129 19 -2115 18 -1698 0 -2080 -2 -2105 -13z m351 -484 c37 -24 43
-87 13 -126 -17 -21 -29 -26 -65 -26 l-44 0 0 80 0 80 43 0 c23 0 47 -4 53 -8z
m174 -2 c0 -5 -20 -10 -45 -10 -41 0 -45 -2 -45 -25 0 -23 4 -25 45 -25 25 0
45 -4 45 -10 0 -5 -20 -10 -45 -10 -41 0 -45 -2 -45 -25 0 -23 3 -25 50 -25
28 0 50 -4 50 -10 0 -6 -27 -10 -60 -10 l-60 0 0 80 0 80 55 0 c30 0 55 -4 55
-10z m140 -5 c7 -9 10 -27 7 -45 -4 -16 -2 -32 3 -35 15 -9 12 -32 -6 -49 -9
-10 -33 -16 -60 -16 l-44 0 0 80 0 80 44 0 c27 0 48 -6 56 -15z m70 -65 c0
-47 -4 -80 -10 -80 -6 0 -10 33 -10 80 0 47 4 80 10 80 6 0 10 -33 10 -80z
m150 70 c0 -5 -11 -10 -25 -10 -24 0 -25 -2 -25 -70 0 -40 -4 -70 -10 -70 -6
0 -10 30 -10 70 0 68 -1 70 -25 70 -14 0 -25 5 -25 10 0 6 27 10 60 10 33 0
60 -4 60 -10z m5 -334 l35 -15 0 -175 0 -176 -27 -17 c-24 -16 -57 -18 -323
-18 -266 0 -299 2 -323 18 l-27 17 0 168 c0 92 4 172 8 179 17 27 67 32 340
32 225 1 290 -2 317 -13z m-658 -637 l27 -41 28 33 c15 18 28 37 28 41 0 4 9
8 21 8 19 0 18 -4 -15 -49 -20 -27 -36 -54 -36 -61 0 -7 16 -34 35 -60 39 -53
41 -60 20 -60 -8 0 -28 20 -45 45 -17 25 -33 45 -35 45 -2 0 -18 -20 -36 -45
-18 -26 -40 -45 -51 -45 -16 0 -12 9 22 55 22 30 40 59 40 65 0 6 -13 31 -30
55 -34 50 -36 55 -15 55 8 0 27 -19 42 -41z m210 0 l27 -41 28 33 c15 18 28
37 28 41 0 4 9 8 21 8 19 0 18 -4 -15 -49 -20 -27 -36 -54 -36 -61 0 -7 16
-34 35 -60 39 -53 41 -60 20 -60 -8 0 -28 20 -45 45 -17 25 -33 45 -35 45 -2
0 -18 -20 -36 -45 -18 -26 -40 -45 -51 -45 -16 0 -12 9 22 55 22 30 40 59 40
65 0 6 -13 31 -30 55 -34 50 -36 55 -15 55 8 0 27 -19 42 -41z m210 0 l27 -41
28 33 c15 18 28 37 28 41 0 4 9 8 21 8 19 0 18 -4 -15 -49 -20 -27 -36 -54
-36 -61 0 -7 16 -34 35 -60 39 -53 41 -60 20 -60 -8 0 -28 20 -45 45 -17 25
-33 45 -35 45 -2 0 -18 -20 -36 -45 -18 -26 -40 -45 -51 -45 -16 0 -12 9 22
55 22 30 40 59 40 65 0 6 -13 31 -30 55 -34 50 -36 55 -15 55 8 0 27 -19 42
-41z m210 0 l27 -41 28 33 c15 18 28 37 28 41 0 4 9 8 21 8 19 0 18 -4 -15
-49 -20 -27 -36 -54 -36 -61 0 -7 16 -34 35 -60 39 -53 41 -60 20 -60 -8 0
-28 20 -45 45 -17 25 -33 45 -35 45 -2 0 -18 -20 -36 -45 -18 -26 -40 -45 -51
-45 -16 0 -12 9 22 55 22 30 40 59 40 65 0 6 -13 31 -30 55 -34 50 -36 55 -15
55 8 0 27 -19 42 -41z m300 0 l27 -41 28 33 c15 18 28 37 28 41 0 4 9 8 21 8
19 0 18 -4 -15 -49 -20 -27 -36 -54 -36 -61 0 -7 16 -34 35 -60 39 -53 41 -60
20 -60 -8 0 -28 20 -45 45 -17 25 -33 45 -35 45 -2 0 -18 -20 -36 -45 -18 -26
-40 -45 -51 -45 -16 0 -12 9 22 55 22 30 40 59 40 65 0 6 -13 31 -30 55 -34
50 -36 55 -15 55 8 0 27 -19 42 -41z m210 0 l27 -41 28 33 c15 18 28 37 28 41
0 4 9 8 21 8 19 0 18 -4 -15 -49 -20 -27 -36 -54 -36 -61 0 -7 16 -34 35 -60
39 -53 41 -60 20 -60 -8 0 -28 20 -45 45 -17 25 -33 45 -35 45 -2 0 -18 -20
-36 -45 -18 -26 -40 -45 -51 -45 -16 0 -12 9 22 55 22 30 40 59 40 65 0 6 -13
31 -30 55 -34 50 -36 55 -15 55 8 0 27 -19 42 -41z m210 0 l27 -41 28 33 c15
18 28 37 28 41 0 4 9 8 21 8 19 0 18 -4 -15 -49 -20 -27 -36 -54 -36 -61 0 -7
16 -34 35 -60 39 -53 41 -60 20 -60 -8 0 -28 20 -45 45 -17 25 -33 45 -35 45
-2 0 -18 -20 -36 -45 -18 -26 -40 -45 -51 -45 -16 0 -12 9 22 55 22 30 40 59
40 65 0 6 -13 31 -30 55 -34 50 -36 55 -15 55 8 0 27 -19 42 -41z m210 0 l27
-41 28 33 c15 18 28 37 28 41 0 4 9 8 21 8 19 0 18 -4 -15 -49 -20 -27 -36
-54 -36 -61 0 -7 16 -34 35 -60 39 -53 41 -60 20 -60 -8 0 -28 20 -45 45 -17
25 -33 45 -35 45 -2 0 -18 -20 -36 -45 -18 -26 -40 -45 -51 -45 -16 0 -12 9
22 55 22 30 40 59 40 65 0 6 -13 31 -30 55 -34 50 -36 55 -15 55 8 0 27 -19
42 -41z m300 0 l27 -41 28 33 c15 18 28 37 28 41 0 4 9 8 21 8 19 0 18 -4 -15
-49 -20 -27 -36 -54 -36 -61 0 -7 16 -34 35 -60 39 -53 41 -60 20 -60 -8 0
-28 20 -45 45 -17 25 -33 45 -35 45 -2 0 -18 -20 -36 -45 -18 -26 -40 -45 -51
-45 -16 0 -12 9 22 55 22 30 40 59 40 65 0 6 -13 31 -30 55 -34 50 -36 55 -15
55 8 0 27 -19 42 -41z m210 0 l27 -41 28 33 c15 18 28 37 28 41 0 4 9 8 21 8
19 0 18 -4 -15 -49 -20 -27 -36 -54 -36 -61 0 -7 16 -34 35 -60 39 -53 41 -60
20 -60 -8 0 -28 20 -45 45 -17 25 -33 45 -35 45 -2 0 -18 -20 -36 -45 -18 -26
-40 -45 -51 -45 -16 0 -12 9 22 55 22 30 40 59 40 65 0 6 -13 31 -30 55 -34
50 -36 55 -15 55 8 0 27 -19 42 -41z m210 0 l27 -41 28 33 c15 18 28 37 28 41
0 4 9 8 21 8 19 0 18 -4 -15 -49 -20 -27 -36 -54 -36 -61 0 -7 16 -34 35 -60
39 -53 41 -60 20 -60 -8 0 -28 20 -45 45 -17 25 -33 45 -35 45 -2 0 -18 -20
-36 -45 -18 -26 -40 -45 -51 -45 -16 0 -12 9 22 55 22 30 40 59 40 65 0 6 -13
31 -30 55 -34 50 -36 55 -15 55 8 0 27 -19 42 -41z m210 0 l27 -41 28 33 c15
18 28 37 28 41 0 4 9 8 21 8 19 0 18 -4 -15 -49 -20 -27 -36 -54 -36 -61 0 -7
16 -34 35 -60 39 -53 41 -60 20 -60 -8 0 -28 20 -45 45 -17 25 -33 45 -35 45
-2 0 -18 -20 -36 -45 -18 -26 -40 -45 -51 -45 -16 0 -12 9 22 55 22 30 40 59
40 65 0 6 -13 31 -30 55 -34 50 -36 55 -15 55 8 0 27 -19 42 -41z m300 0 l27
-41 28 33 c15 18 28 37 28 41 0 4 9 8 21 8 19 0 18 -4 -15 -49 -20 -27 -36
-54 -36 -61 0 -7 16 -34 35 -60 39 -53 41 -60 20 -60 -8 0 -28 20 -45 45 -17
25 -33 45 -35 45 -2 0 -18 -20 -36 -45 -18 -26 -40 -45 -51 -45 -16 0 -12 9
22 55 22 30 40 59 40 65 0 6 -13 31 -30 55 -34 50 -36 55 -15 55 8 0 27 -19
42 -41z m210 0 l27 -41 28 33 c15 18 28 37 28 41 0 4 9 8 21 8 19 0 18 -4 -15
-49 -20 -27 -36 -54 -36 -61 0 -7 16 -34 35 -60 39 -53 41 -60 20 -60 -8 0
-28 20 -45 45 -17 25 -33 45 -35 45 -2 0 -18 -20 -36 -45 -18 -26 -40 -45 -51
-45 -16 0 -12 9 22 55 22 30 40 59 40 65 0 6 -13 31 -30 55 -34 50 -36 55 -15
55 8 0 27 -19 42 -41z m210 0 l27 -41 28 33 c15 18 28 37 28 41 0 4 9 8 21 8
19 0 18 -4 -15 -49 -20 -27 -36 -54 -36 -61 0 -7 16 -34 35 -60 39 -53 41 -60
20 -60 -8 0 -28 20 -45 45 -17 25 -33 45 -35 45 -2 0 -18 -20 -36 -45 -18 -26
-40 -45 -51 -45 -16 0 -12 9 22 55 22 30 40 59 40 65 0 6 -13 31 -30 55 -34
50 -36 55 -15 55 8 0 27 -19 42 -41z m210 0 l27 -41 28 33 c15 18 28 37 28 41
0 4 9 8 21 8 19 0 18 -4 -15 -49 -20 -27 -36 -54 -36 -61 0 -7 16 -34 35 -60
39 -53 41 -60 20 -60 -8 0 -28 20 -45 45 -17 25 -33 45 -35 45 -2 0 -18 -20
-36 -45 -18 -26 -40 -45 -51 -45 -16 0 -12 9 22 55 22 30 40 59 40 65 0 6 -13
31 -30 55 -34 50 -36 55 -15 55 8 0 27 -19 42 -41z m293 -256 c58 -66 74 -131
46 -197 -15 -36 -73 -106 -88 -106 -5 0 4 11 20 25 38 32 72 101 72 145 0 44
-34 113 -72 145 -16 14 -25 25 -20 25 6 0 24 -17 42 -37z m-26 -34 c60 -70 59
-133 -1 -200 -20 -22 -39 -39 -45 -39 -5 0 7 14 26 30 69 61 71 142 7 210 -21
22 -34 40 -30 40 4 0 23 -19 43 -41z m-30 -20 c30 -36 41 -69 32 -103 -6 -26
-52 -86 -66 -86 -5 0 4 13 20 29 16 16 32 40 36 55 9 38 -3 74 -36 107 -16 16
-25 29 -20 29 4 0 20 -14 34 -31z m-4 -79 c0 -11 -14 -34 -31 -52 l-31 -33 26
33 c14 19 26 42 26 52 0 10 -12 33 -26 52 l-26 33 31 -33 c17 -18 31 -41 31
-52z m-2446 -81 l18 -31 28 34 c37 43 47 32 14 -16 l-26 -37 26 -40 c29 -42
31 -49 16 -49 -5 0 -20 16 -33 36 l-25 35 -22 -35 c-12 -20 -28 -36 -36 -36
-11 0 -6 13 16 45 l31 44 -26 41 c-17 26 -21 40 -12 40 7 0 21 -14 31 -31z
m150 0 l18 -31 28 34 c37 43 47 32 14 -16 l-26 -37 26 -40 c29 -42 31 -49 16
-49 -5 0 -20 16 -33 36 l-25 35 -22 -35 c-12 -20 -28 -36 -36 -36 -11 0 -6 13
16 45 l31 44 -26 41 c-17 26 -21 40 -12 40 7 0 21 -14 31 -31z m162 16 c-3 -9
-15 -47 -27 -85 -11 -39 -25 -70 -29 -70 -5 0 -2 21 6 48 8 26 19 64 26 85 6
20 15 37 21 37 5 0 6 -7 3 -15z m58 -16 l18 -31 28 34 c37 43 47 32 14 -16
l-26 -37 26 -40 c29 -42 31 -49 16 -49 -5 0 -20 16 -33 36 l-25 35 -22 -35
c-12 -20 -28 -36 -36 -36 -11 0 -6 13 16 45 l31 44 -26 41 c-17 26 -21 40 -12
40 7 0 21 -14 31 -31z m150 0 l18 -31 28 34 c37 43 47 32 14 -16 l-26 -37 26
-40 c29 -42 31 -49 16 -49 -5 0 -20 16 -33 36 l-25 35 -22 -35 c-12 -20 -28
-36 -36 -36 -11 0 -6 13 16 45 l31 44 -26 41 c-17 26 -21 40 -12 40 7 0 21
-14 31 -31z m1276 -343 l44 -124 49 124 c40 101 52 124 69 124 11 0 18 -4 16
-9 -1 -5 -28 -70 -58 -145 -51 -125 -57 -136 -81 -136 -20 0 -28 7 -36 33 -6
17 -29 83 -51 145 -40 111 -41 112 -18 112 20 0 28 -15 66 -124z m250 -21 c0
-138 -1 -145 -20 -145 -19 0 -20 7 -20 145 0 138 1 145 20 145 19 0 20 -7 20
-145z m241 116 c34 -34 38 -61 9 -61 -11 0 -20 7 -20 15 0 32 -79 47 -114 22
-36 -26 -16 -50 59 -70 102 -26 132 -74 82 -132 -27 -33 -100 -45 -147 -25
-28 12 -60 54 -60 80 0 19 35 10 45 -12 22 -50 137 -47 143 3 3 28 -4 33 -103
61 -117 33 -91 146 33 148 35 0 49 -6 73 -29z m255 -76 c82 -201 77 -185 51
-185 -18 0 -26 9 -38 43 l-16 42 -60 3 -61 3 -14 -43 c-11 -32 -21 -44 -38
-46 -19 -3 -21 0 -15 15 4 10 24 63 45 118 21 55 43 113 49 128 8 21 17 28 33
25 18 -2 31 -22 64 -103z m-3751 -28 c13 -10 16 -22 13 -42 -3 -16 -1 -39 5
-52 17 -37 -14 -63 -75 -63 l-48 0 0 85 0 85 43 0 c24 0 51 -6 62 -13z m120
-49 l40 -63 3 63 c4 93 22 75 22 -23 0 -49 -4 -85 -10 -85 -5 0 -30 30 -55 67
l-45 68 0 -68 c0 -38 -4 -67 -10 -67 -6 0 -10 35 -10 85 0 61 3 85 13 85 6 0
30 -28 52 -62z m125 20 l0 -42 43 42 c52 51 86 58 38 8 l-34 -35 38 -50 c25
-35 32 -51 22 -51 -8 0 -27 17 -43 38 -15 20 -29 39 -30 41 -9 11 -34 -25 -34
-50 0 -16 -4 -29 -10 -29 -6 0 -10 35 -10 85 0 50 4 85 10 85 6 0 10 -19 10
-42z m332 20 c14 -14 17 -23 10 -26 -7 -2 -19 4 -28 12 -22 23 -60 20 -78 -6
-46 -65 30 -147 81 -88 10 11 21 20 25 20 14 0 8 -20 -12 -40 -47 -47 -130 -6
-130 65 0 72 83 112 132 63z m121 5 c2 -10 16 -48 30 -85 21 -54 23 -68 12
-68 -8 0 -17 11 -21 25 -5 21 -12 25 -40 25 -28 0 -36 -5 -44 -25 -5 -14 -14
-25 -20 -25 -14 0 -14 -3 21 89 30 78 51 100 62 64z m195 5 c19 -19 14 -56 -8
-68 -20 -11 -20 -11 5 -44 28 -37 31 -46 13 -46 -7 0 -23 18 -36 40 -17 30
-29 40 -47 40 -22 0 -25 -4 -25 -40 0 -22 -4 -40 -10 -40 -6 0 -10 35 -10 85
l0 85 53 0 c29 0 58 -5 65 -12z m167 -13 c17 -16 25 -35 25 -60 0 -53 -36 -85
-95 -85 l-45 0 0 85 0 85 45 0 c35 0 52 -6 70 -25z m75 -10 c0 -35 0 -35 45
-35 45 0 45 0 45 35 0 19 5 35 10 35 6 0 10 -35 10 -85 0 -50 -4 -85 -10 -85
-5 0 -10 18 -10 40 l0 40 -45 0 -45 0 0 -40 c0 -22 -4 -40 -10 -40 -6 0 -10
35 -10 85 0 50 4 85 10 85 6 0 10 -16 10 -35z m293 4 c21 -26 22 -77 2 -106
-33 -48 -123 -37 -145 18 -17 39 -2 90 30 107 33 17 91 8 113 -19z m67 -44 l0
-75 40 0 c22 0 40 -4 40 -10 0 -5 -22 -10 -50 -10 l-50 0 0 85 c0 50 4 85 10
85 6 0 10 -32 10 -75z m225 50 c17 -16 25 -35 25 -60 0 -53 -36 -85 -95 -85
l-45 0 0 85 0 85 45 0 c35 0 52 -6 70 -25z m175 15 c0 -5 -22 -10 -50 -10 -47
0 -50 -2 -50 -25 0 -23 3 -25 50 -25 28 0 50 -4 50 -10 0 -5 -22 -10 -50 -10
-49 0 -50 -1 -50 -30 0 -30 1 -30 55 -30 30 0 55 -4 55 -10 0 -6 -28 -10 -65
-10 l-65 0 0 85 0 85 60 0 c33 0 60 -4 60 -10z m158 -2 c19 -19 14 -56 -8 -68
-20 -11 -20 -11 5 -44 28 -37 31 -46 13 -46 -7 0 -23 18 -36 40 -17 30 -29 40
-47 40 -22 0 -25 -4 -25 -40 0 -22 -4 -40 -10 -40 -6 0 -10 35 -10 85 l0 85
53 0 c29 0 58 -5 65 -12z"/>
<path d="M730 3290 l0 -61 37 3 c31 2 39 8 47 31 6 17 6 37 0 55 -8 22 -16 28
-47 30 l-37 3 0 -61z"/>
<path d="M1040 3325 c0 -24 3 -26 33 -23 24 2 32 8 32 23 0 15 -8 21 -32 23
-30 3 -33 1 -33 -23z"/>
<path d="M1040 3255 c0 -24 3 -26 38 -23 29 2 37 7 37 23 0 16 -8 21 -37 23
-35 3 -38 1 -38 -23z"/>
<path d="M920 3000 l0 -30 -75 0 -75 0 0 -150 0 -150 75 0 c68 0 75 -2 75 -20
0 -19 7 -20 105 -20 98 0 105 1 105 20 0 18 7 20 80 20 l80 0 0 150 0 150 -80
0 -80 0 0 30 0 30 -105 0 -105 0 0 -30z m200 -5 c0 -25 0 -25 -95 -25 -95 0
-95 0 -95 25 0 25 0 25 95 25 95 0 95 0 95 -25z m-200 -70 l0 -35 -70 0 -70 0
0 35 0 35 70 0 70 0 0 -35z m200 -105 l0 -140 -95 0 -95 0 0 140 0 140 95 0
95 0 0 -140z m160 105 l0 -35 -75 0 -75 0 0 35 0 35 75 0 75 0 0 -35z m-360
-100 l0 -55 -70 0 -70 0 0 55 0 55 70 0 70 0 0 -55z m360 0 l0 -55 -75 0 -75
0 0 55 0 55 75 0 75 0 0 -55z m-360 -105 l0 -40 -70 0 -70 0 0 40 0 40 70 0
70 0 0 -40z m360 0 l0 -40 -75 0 -75 0 0 40 0 40 75 0 75 0 0 -40z m-160 -65
c0 -12 -17 -15 -95 -15 -78 0 -95 3 -95 15 0 12 17 15 95 15 78 0 95 -3 95
-15z"/>
<path d="M4357 1619 c-33 -79 -33 -79 12 -79 47 0 48 5 22 70 l-19 45 -15 -36z"/>
<path d="M600 1535 c0 -24 3 -26 38 -23 29 2 37 7 37 23 0 16 -8 21 -37 23
-35 3 -38 1 -38 -23z"/>
<path d="M600 1460 c0 -27 3 -30 34 -30 18 0 39 7 46 15 19 22 -5 45 -46 45
-31 0 -34 -3 -34 -30z"/>
<path d="M1351 1521 c-15 -36 -12 -44 17 -39 17 3 18 6 7 37 l-11 34 -13 -32z"/>
<path d="M1480 1535 c0 -25 3 -26 43 -23 34 2 42 7 42 23 0 16 -8 21 -42 23
-40 3 -43 2 -43 -23z"/>
<path d="M1650 1495 l0 -65 34 0 c25 0 39 7 50 22 35 49 7 108 -50 108 l-34 0
0 -65z"/>
<path d="M2000 1540 c-11 -11 -20 -31 -20 -45 0 -14 9 -34 20 -45 11 -11 31
-20 45 -20 14 0 34 9 45 20 11 11 20 31 20 45 0 14 -9 34 -20 45 -11 11 -31
20 -45 20 -14 0 -34 -9 -45 -20z"/>
<path d="M2310 1495 l0 -65 34 0 c25 0 39 7 50 22 35 49 7 108 -50 108 l-34 0
0 -65z"/>
<path d="M2640 1535 c0 -25 3 -26 43 -23 34 2 42 7 42 23 0 16 -8 21 -42 23
-40 3 -43 2 -43 -23z"/>
</g>
</svg>
