<svg xmlns="http://www.w3.org/2000/svg" width="512" height="512" viewBox="0 0 512 512" version="1.1"><path d="M 0 256.002 L 0 512.004 256.250 511.752 L 512.500 511.500 512.752 255.750 L 513.004 0 256.502 0 L 0 0 0 256.002 M 0.492 256.500 C 0.492 397.300, 0.608 454.751, 0.750 384.170 C 0.892 313.588, 0.892 198.388, 0.750 128.170 C 0.608 57.951, 0.492 115.700, 0.492 256.500 M 232.107 92.143 C 166.795 98.970, 107.744 141.499, 81.838 200.369 C 77.413 210.424, 71.859 228.219, 70.015 238.250 C 69.332 241.962, 68.374 245, 67.887 245 C 67.399 245, 67 248.591, 67 252.981 C 67 262.109, 67.830 261.420, 55.500 262.525 C 45.790 263.395, 36.026 265.698, 32.212 268.017 L 29 269.971 29.015 291.235 C 29.024 302.931, 29.361 313, 29.765 313.610 C 32.164 317.236, 44.733 320.162, 65.991 322.043 C 72.861 322.651, 78.610 323.277, 78.768 323.435 C 78.925 323.592, 76.999 324.002, 74.487 324.347 C 65.130 325.629, 65.807 322.476, 66.551 361.313 C 67.295 400.137, 67.520 401.316, 75.200 406.638 L 79.329 409.500 252.415 409.500 L 425.500 409.500 429.116 407.053 C 431.104 405.707, 433.804 403.041, 435.116 401.128 L 437.500 397.650 437.787 362.662 C 437.974 339.973, 437.719 327.319, 437.061 326.661 C 436.504 326.104, 433.450 325.115, 430.274 324.463 L 424.500 323.279 432.500 322.603 C 448.944 321.213, 464.651 319.002, 469.262 317.429 C 476.840 314.843, 477 314.323, 477 292.343 C 477 281.776, 476.588 272.046, 476.084 270.721 C 475.580 269.396, 473.893 267.799, 472.334 267.171 C 467.910 265.388, 457.188 263.205, 449.500 262.521 C 437.173 261.424, 438 262.109, 438 252.981 C 438 248.591, 437.612 245, 437.137 245 C 436.662 245, 435.495 241.063, 434.544 236.250 C 427.992 203.103, 411.729 172.767, 386.803 147.202 C 347.129 106.510, 289.815 86.111, 232.107 92.143" stroke="none" fill="none" fill-rule="evenodd"/><path d="M 232.107 92.143 C 166.795 98.970, 107.744 141.499, 81.838 200.369 C 77.413 210.424, 71.859 228.219, 70.015 238.250 C 69.332 241.962, 68.374 245, 67.887 245 C 67.399 245, 67 248.600, 67 253 C 67 260.159, 67.197 261, 68.878 261 C 69.910 261, 71.295 260.350, 71.954 259.555 C 74.607 256.359, 94.081 254.228, 141.500 251.945 C 180.283 250.078, 270.180 249.114, 320.500 250.026 C 396.819 251.410, 427.917 253.917, 433.105 259.105 C 436.962 262.962, 438 261.667, 438 253 C 438 248.600, 437.612 245, 437.137 245 C 436.662 245, 435.495 241.063, 434.544 236.250 C 427.992 203.103, 411.729 172.767, 386.803 147.202 C 347.129 106.510, 289.815 86.111, 232.107 92.143 M 67 375.301 C 67 398.430, 67.807 401.516, 75.200 406.638 L 79.329 409.500 252.415 409.500 L 425.500 409.500 429.116 407.053 C 431.104 405.707, 433.804 403.042, 435.116 401.130 C 437.418 397.772, 437.510 396.918, 437.806 376.198 C 438.097 355.841, 438.020 354.780, 436.306 355.476 C 424.399 360.306, 417.284 360.500, 252 360.500 C 94.154 360.500, 81.517 360.223, 70.750 356.523 L 67 355.234 67 375.301" stroke="none" fill="#ff7f27" fill-rule="evenodd"/><path d="M 94 322.077 C 81.122 323.009, 70.558 324.631, 67.821 326.096 C 66.198 326.964, 66 328.533, 66 340.512 C 66 353.350, 66.101 354.020, 68.250 355.422 C 75.516 360.163, 101.435 360.944, 251.500 360.939 C 399.652 360.934, 425.877 360.203, 435.519 355.809 L 438.053 354.655 437.776 340.581 L 437.500 326.506 433.862 325.316 C 423.345 321.874, 414.307 321.674, 259 321.458 C 174.575 321.340, 100.325 321.619, 94 322.077 M 99 326.654 C 90.847 327.145, 74.016 329.056, 72.404 329.675 C 71.319 330.092, 71 332.662, 71 341 L 71 351.786 77.250 352.925 C 91.852 355.585, 129.142 356.127, 268.552 355.706 C 403.883 355.297, 417.808 355.013, 430.250 352.415 L 433 351.841 433 340.940 C 433 330.463, 432.912 330.017, 430.750 329.492 C 420.310 326.960, 407.101 326.732, 259.500 326.533 C 174.250 326.418, 102.025 326.472, 99 326.654" stroke="none" fill="#ed1c24" fill-rule="evenodd"/><path d="M 99 326.654 C 90.847 327.145, 74.016 329.056, 72.404 329.675 C 71.319 330.092, 71 332.662, 71 341 L 71 351.786 77.250 352.925 C 91.852 355.585, 129.142 356.127, 268.552 355.706 C 403.883 355.297, 417.808 355.013, 430.250 352.415 L 433 351.841 433 340.940 C 433 330.463, 432.912 330.017, 430.750 329.492 C 420.310 326.960, 407.101 326.732, 259.500 326.533 C 174.250 326.418, 102.025 326.472, 99 326.654" stroke="none" fill="#ff1e27" fill-rule="evenodd"/><path d="M 285 274.609 C 282.525 275.435, 275.775 276.423, 270 276.805 C 260.553 277.430, 259.500 277.693, 259.500 279.420 C 259.500 280.926, 261.012 281.806, 266.500 283.495 C 279.090 287.371, 280.782 288.899, 282.558 298 C 282.934 299.925, 283.847 302.686, 284.587 304.135 C 286.566 308.011, 294.533 314.656, 299.453 316.535 C 303.583 318.112, 303.903 318.091, 308.120 315.967 C 319.237 310.369, 325.839 303.279, 330.410 292.030 C 331.845 288.498, 333.972 284.595, 335.136 283.355 C 338.921 279.327, 337.099 278, 327.781 278 C 323.227 278, 314.100 277.086, 307.500 275.969 C 289.829 272.979, 289.877 272.982, 285 274.609 M 81.470 280.094 C 81.004 281.561, 81.537 282.982, 83.249 284.844 C 87.326 289.275, 89 292.305, 89 295.255 C 89 296.800, 89.669 299.666, 90.487 301.624 C 92.159 305.625, 103.267 317, 105.502 317 C 106.301 317, 107.708 315.762, 108.629 314.250 C 112.767 307.455, 114.977 304.909, 122.111 298.713 C 126.298 295.078, 130.460 290.550, 131.361 288.651 C 133.081 285.026, 133.554 279.460, 132.212 278.631 C 131.779 278.363, 127.167 278.784, 121.962 279.565 C 109.861 281.382, 99.338 281.355, 90.500 279.483 C 81.768 277.633, 82.262 277.600, 81.470 280.094" stroke="none" fill="#fff200" fill-rule="evenodd"/><path d="M 209 255.036 C 148.217 256.087, 101.193 258.453, 83.500 261.353 C 77.524 262.332, 76.455 262.816, 76.193 264.658 C 75.779 267.562, 79.146 270.512, 85.936 273.192 C 90.659 275.055, 93.541 275.396, 105 275.444 C 118.561 275.500, 134 273.098, 134 270.932 C 134 270.419, 134.810 270, 135.800 270 C 136.790 270, 138.027 269.609, 138.550 269.130 C 140.343 267.489, 146.803 267.044, 147.370 268.523 C 148.562 271.628, 171.747 274.550, 187 273.516 C 198.708 272.723, 209 271.068, 209 269.978 C 209 269.529, 211.009 268.734, 213.464 268.210 C 216.930 267.471, 219.668 267.676, 225.714 269.129 C 244.043 273.534, 275.953 273.698, 282.482 269.420 C 285.468 267.463, 290.633 267.768, 307.500 270.897 C 321.258 273.449, 339.605 273.658, 350.582 271.388 C 357.431 269.971, 360.102 269.929, 372.571 271.040 C 387.811 272.398, 406.976 271.918, 416 269.952 C 426.029 267.767, 432.355 263.091, 427.250 261.636 C 422.646 260.325, 413.452 258.971, 403 258.067 C 370.060 255.216, 280.013 253.809, 209 255.036" stroke="none" fill="#29d45b" fill-rule="evenodd"/><path d="M 209.500 250.030 C 135.477 251.297, 81.936 254.577, 74 258.331 C 68.876 260.755, 70.865 270.360, 77.413 274.816 C 88.074 282.071, 114.824 282.842, 134.876 276.475 L 142.480 274.060 151.990 275.940 C 171.490 279.794, 194.853 279.407, 210.883 274.965 C 217.905 273.019, 218.625 272.996, 225.896 274.479 C 244.484 278.270, 273.159 278.279, 285.753 274.498 C 290.454 273.086, 291.769 273.075, 298.253 274.393 C 318.454 278.497, 342.744 279.075, 354.789 275.738 C 358.838 274.616, 361.182 274.511, 364.789 275.288 C 367.380 275.846, 378.725 276.336, 390 276.376 C 411.783 276.455, 419.426 275.374, 427.988 271.006 C 432.473 268.718, 434 266.456, 434 262.101 C 434 258.343, 432.267 257.333, 422.712 255.523 C 398.226 250.884, 302.956 248.430, 209.500 250.030 M 209 255.069 C 148.562 256.069, 101.302 258.435, 83.500 261.353 C 77.524 262.332, 76.455 262.816, 76.193 264.658 C 75.779 267.562, 79.146 270.512, 85.936 273.192 C 90.659 275.055, 93.541 275.396, 105 275.444 C 118.561 275.500, 134 273.098, 134 270.932 C 134 270.419, 134.810 270, 135.800 270 C 136.790 270, 138.027 269.609, 138.550 269.130 C 140.343 267.489, 146.803 267.044, 147.370 268.523 C 148.562 271.628, 171.747 274.550, 187 273.516 C 198.708 272.723, 209 271.068, 209 269.978 C 209 269.529, 211.009 268.734, 213.464 268.210 C 216.930 267.471, 219.668 267.676, 225.714 269.129 C 244.043 273.534, 275.953 273.698, 282.482 269.420 C 285.468 267.463, 290.633 267.768, 307.500 270.897 C 321.258 273.449, 339.605 273.658, 350.582 271.388 C 357.431 269.971, 360.102 269.929, 372.571 271.040 C 395.306 273.066, 416.265 271.402, 425.250 266.856 C 435.123 261.862, 425.609 259.375, 387.500 256.991 C 371.090 255.964, 279.363 253.922, 262 254.197 C 257.325 254.271, 233.475 254.663, 209 255.069" stroke="none" fill="#22b14c" fill-rule="evenodd"/><path d="M 54.858 262.506 C 43.154 263.924, 34.712 266.075, 31.250 268.523 C 29.037 270.088, 29 270.458, 29.015 291.307 C 29.024 302.963, 29.361 313, 29.765 313.610 C 32.164 317.236, 44.724 320.160, 66 322.046 C 75.279 322.868, 83.525 322.854, 98 321.990 C 112.181 321.143, 158.003 321.001, 266 321.468 C 347.675 321.821, 420.381 322.119, 427.568 322.129 C 442.087 322.151, 461.987 319.905, 469.273 317.423 C 476.838 314.845, 477 314.320, 477 292.343 C 477 281.776, 476.588 272.046, 476.084 270.721 C 474.609 266.841, 467.532 264.689, 449.006 262.486 C 433.235 260.610, 434 260.563, 434 263.420 C 434 265.678, 434.454 265.884, 440.750 266.488 C 449.912 267.366, 464.779 269.816, 468.750 271.102 L 472 272.155 472 291.542 C 472 314.019, 473.057 312.014, 459.944 314.397 C 441.318 317.782, 429.064 317.993, 251.500 317.986 C 69.367 317.978, 59.409 317.789, 42.591 314.020 C 33.434 311.968, 34 313.453, 34 291.493 L 34 272.056 39.250 270.559 C 44.893 268.951, 53.450 267.562, 64.250 266.503 C 70.542 265.886, 71 265.677, 71 263.420 C 71 260.580, 70.833 260.571, 54.858 262.506" stroke="none" fill="#82563d" fill-rule="evenodd"/><path d="M 62.500 266.656 C 51.028 268.020, 43.305 269.314, 38.995 270.594 L 34 272.077 34 291.504 C 34 313.452, 33.434 311.968, 42.591 314.020 C 58.555 317.598, 72.537 317.978, 188.446 317.989 L 302.393 318 297.279 315.452 C 288.819 311.236, 282.036 302.242, 282.006 295.200 C 281.983 290.017, 275.992 285.789, 264.603 282.922 C 261.365 282.106, 259.571 281.076, 259.250 279.848 C 258.975 278.796, 257.848 277.986, 256.633 277.966 C 250.419 277.868, 232.621 275.850, 225.926 274.485 C 218.620 272.995, 217.912 273.017, 210.883 274.965 C 194.850 279.408, 171.463 279.795, 152 275.939 C 143.102 274.176, 142.175 274.159, 137.365 275.675 C 132.235 277.291, 132.230 277.297, 132.728 281.007 C 133.479 286.607, 130.683 291.270, 122.111 298.713 C 114.977 304.909, 112.767 307.455, 108.629 314.250 C 107.708 315.762, 106.301 317, 105.502 317 C 103.267 317, 92.159 305.625, 90.487 301.624 C 89.669 299.666, 89 296.767, 89 295.182 C 89 292.494, 84.563 285.084, 82.008 283.505 C 81.382 283.118, 81.127 281.632, 81.432 280.155 C 81.903 277.884, 81.409 277.148, 78.017 275.066 C 75.837 273.727, 73.345 271.139, 72.480 269.316 C 70.843 265.866, 70.319 265.727, 62.500 266.656 M 432.689 267.367 C 431.853 269.548, 425.203 272.725, 417.271 274.734 C 411.902 276.095, 406.254 276.435, 390 276.376 C 378.725 276.336, 367.380 275.846, 364.789 275.288 C 361.254 274.526, 358.758 274.616, 354.789 275.649 C 351.880 276.406, 346.500 277.305, 342.834 277.648 C 337.657 278.132, 336.288 278.588, 336.710 279.687 C 337.009 280.465, 336.300 282.116, 335.136 283.355 C 333.972 284.595, 331.845 288.498, 330.410 292.030 C 325.889 303.155, 320.498 309.141, 309.572 315.167 L 304.500 317.964 366.500 317.978 C 427.953 317.993, 443.420 317.400, 459.944 314.397 C 473.057 312.014, 472 314.019, 472 291.542 L 472 272.155 468.750 271.102 C 464.603 269.759, 449.595 267.308, 440.391 266.472 C 434.502 265.936, 433.179 266.090, 432.689 267.367" stroke="none" fill="#9e694a" fill-rule="evenodd"/></svg>